<svg xmlns="http://www.w3.org/2000/svg" id="Layer_2" data-name="Layer 2" viewBox="0 0 512 512"><defs><style>.cls-1,.cls-2{stroke-width:0}.cls-2{fill:#fff}</style></defs><path d="M566 566H-54V-54h620v620ZM255.33 3.84C116.82 3.84 3.91 116.77 3.9 255.31c0 138.53 112.95 251.5 251.43 251.49 138.54-.02 251.43-112.94 251.43-251.49 0-138.57-112.89-251.47-251.43-251.47Z" class="cls-2"/><path d="M255.33 3.84c138.54 0 251.42 112.9 251.43 251.47 0 138.55-112.89 251.47-251.43 251.49C116.84 506.82 3.89 393.84 3.9 255.31 3.91 116.77 116.82 3.84 255.33 3.84Zm.07 464.27c117.09-.05 212.51-95.42 212.67-212.57.16-117.31-95.5-213.06-212.82-213.01-117.1.05-212.51 95.41-212.67 212.55-.16 117.28 95.54 213.08 212.82 213.03Z" class="cls-1"/><path d="M255.41 468.11c-117.28.05-212.98-95.74-212.82-213.03.16-117.14 95.57-212.5 212.67-212.55 117.32-.05 212.99 95.7 212.82 213.01-.16 117.15-95.58 212.51-212.67 212.57ZM127.39 332.7h6.47c55.4 0 110.79-.06 166.19.12 4.49.01 6.66-1.38 8.63-5.35 23.78-47.94 47.76-95.79 71.68-143.66.86-1.72 1.64-3.48 2.75-5.86h-6.32c-55.4 0-110.79.06-166.19-.11-4.49-.01-6.66 1.38-8.63 5.36-22.87 46.14-45.95 92.18-68.98 138.25l-5.62 11.27Z" class="cls-2"/><path d="m127.39 332.7 5.62-11.27c23.02-46.07 46.1-92.11 68.98-138.25 1.97-3.98 4.14-5.37 8.63-5.36 55.4.18 110.79.11 166.19.11h6.32c-1.11 2.38-1.89 4.14-2.75 5.86-23.92 47.88-47.9 95.72-71.68 143.66-1.97 3.97-4.15 5.36-8.63 5.35-55.4-.18-110.79-.12-166.19-.12h-6.47Zm62.79-39.22c1.28.27 1.83.49 2.39.49 28.58.02 57.16.12 85.74-.16 2.03-.02 4.88-2.38 5.91-4.38 11.45-22.37 22.61-44.88 33.83-67.36.78-1.56 1.4-3.19 2.37-5.44-30.2 0-59.73-.04-89.26.12-1.34 0-3.25 1.51-3.91 2.81-12.34 24.38-24.53 48.83-37.07 73.9Z" class="cls-1"/><path d="M190.17 293.48c12.54-25.07 24.73-49.53 37.07-73.9.66-1.3 2.57-2.81 3.91-2.81 29.53-.16 59.06-.12 89.26-.12-.97 2.24-1.6 3.88-2.37 5.44-11.22 22.48-22.39 44.99-33.83 67.36-1.03 2.01-3.88 4.36-5.91 4.38-28.58.28-57.16.18-85.74.16-.55 0-1.11-.22-2.39-.49Z" class="cls-2"/></svg>
