<svg xmlns="http://www.w3.org/2000/svg" id="Layer_2" data-name="Layer 2" viewBox="0 0 512 512"><defs><style>.cls-1,.cls-2{stroke-width:0}.cls-2{fill:#fff}</style></defs><path d="M387.37 3H508.6v505.6H3v-70.96c1.41 5.52 2.44 11.17 4.31 16.52 11.33 32.46 40.46 53.29 75.1 53.41 49.43.17 98.86.05 148.3.04 1.31 0 2.64.03 3.93-.15 7.8-1.07 13.47-5.16 16.32-12.52 2.86-7.38 1.43-14.28-3.75-20.2-4.41-5.04-10.27-6.6-16.84-6.59-48.45.07-96.89.2-145.34-.15-6.85-.05-14.27-1.36-20.41-4.25-15.7-7.39-22.21-20.94-22.21-37.99.03-92.46.01-184.92.01-277.38 0-8.87-.14-17.74.04-26.6.39-19.13 12.3-35.17 30.39-38.55 10.8-2.02 22.1-1.33 33.63-1.88 0 6.89-.04 12.76 0 18.64.11 12.48 8.32 21.27 19.76 21.24 11.43-.03 19.55-8.83 19.65-21.35.05-5.87 0-11.73 0-17.73h88.7c0 6.02-.03 11.74 0 17.46.08 12.83 8.26 21.72 19.87 21.62 11.42-.1 19.44-8.89 19.54-21.46.04-5.85 0-11.71 0-17.58h89.69c0 6.08-.03 11.81 0 17.54.09 12.59 8.08 21.38 19.49 21.5 11.61.13 19.83-8.76 19.92-21.57.04-5.85 0-11.69 0-17.63 9.83 0 19.03-.43 28.17.17 4.94.33 10.14 1.68 14.58 3.88 15.35 7.61 22.28 20.63 22.29 37.51.03 36.46-.05 72.92.06 109.37.04 11.71 8.58 20.31 19.65 20.33 10.89.01 19.62-8.45 19.66-19.79.12-38.43.28-76.86-.14-115.28-.2-18.35-7-34.63-19.13-48.44-16.09-18.32-36.51-27.28-60.86-27.36-7.98-.03-15.97 0-24.27 0 0-5.36-.26-10.11.05-14.83.82-12.2-4.04-20.58-15.82-24.6ZM269.12 388.53c.17 65.58 53.81 119.12 119.28 119.07 65.52-.05 119.11-53.62 119.19-119.16.08-65.63-53.99-119.61-119.53-119.32-65.64.3-119.12 53.99-118.95 119.41ZM126.11 190.29c-10.84.05-19.71 9.05-19.59 19.88.11 10.64 8.87 19.38 19.51 19.47 10.84.09 19.82-8.8 19.84-19.64.02-10.84-8.92-19.76-19.76-19.72Zm85.88 39.35c10.84-.03 19.72-9.02 19.62-19.85-.1-10.64-8.84-19.4-19.48-19.5-10.84-.11-19.83 8.77-19.87 19.61-.04 10.84 8.89 19.78 19.73 19.75Zm105.37-19.52c.09-10.84-8.81-19.81-19.64-19.83-10.64-.02-19.49 8.64-19.71 19.27-.22 10.83 8.57 19.93 19.4 20.08 10.83.15 19.87-8.69 19.95-19.52Zm85.75-.12c.02-10.84-8.93-19.76-19.77-19.71-10.64.05-19.44 8.76-19.59 19.4-.15 10.83 8.69 19.87 19.52 19.95 10.84.09 19.81-8.81 19.83-19.64Zm-257.24 85.58c-.07-10.83-9.1-19.68-19.93-19.54-10.64.14-19.36 8.92-19.42 19.56-.06 10.83 8.85 19.79 19.69 19.79 10.84 0 19.74-8.97 19.67-19.81Zm85.74.12c0-10.84-8.97-19.74-19.81-19.67-10.64.07-19.41 8.8-19.54 19.44-.13 10.83 8.73 19.85 19.56 19.91 10.83.06 19.79-8.85 19.79-19.69Zm-125.1 85.56c-.11 10.84 8.76 19.83 19.6 19.87 10.64.04 19.51-8.6 19.75-19.23.24-10.83-8.52-19.94-19.35-20.12-10.83-.18-19.89 8.65-20 19.48Zm105.4 19.87c10.84.01 19.76-8.94 19.7-19.77-.05-10.64-8.76-19.43-19.4-19.58-10.83-.15-19.87 8.69-19.95 19.53-.08 10.84 8.81 19.81 19.65 19.82Z" class="cls-2"/><path d="M387.37 3c11.78 4.02 16.64 12.39 15.82 24.6-.32 4.72-.05 9.47-.05 14.83 8.3 0 16.29-.02 24.27 0 24.35.08 44.77 9.04 60.86 27.36 12.13 13.81 18.93 30.09 19.13 48.44.42 38.42.26 76.86.14 115.28-.04 11.35-8.77 19.8-19.66 19.79-11.07-.01-19.61-8.61-19.65-20.33-.11-36.46-.02-72.92-.06-109.37-.02-16.88-6.94-29.9-22.29-37.51-4.44-2.2-9.64-3.55-14.58-3.88-9.13-.61-18.33-.17-28.17-.17 0 5.94.03 11.79 0 17.63-.08 12.81-8.31 21.7-19.92 21.57-11.41-.12-19.4-8.92-19.49-21.5-.04-5.73 0-11.46 0-17.54h-89.69c0 5.87.04 11.73 0 17.58-.09 12.57-8.12 21.36-19.54 21.46-11.61.1-19.79-8.78-19.87-21.62-.04-5.72 0-11.44 0-17.46h-88.7c0 6 .04 11.87 0 17.73-.1 12.52-8.22 21.31-19.65 21.35-11.44.03-19.64-8.76-19.76-21.24-.05-5.87 0-11.75 0-18.64-11.53.55-22.84-.14-33.63 1.88-18.09 3.39-30 19.42-30.39 38.55-.18 8.86-.04 17.74-.04 26.6 0 92.46.02 184.92-.01 277.38 0 17.06 6.5 30.6 22.21 37.99 6.14 2.89 13.56 4.2 20.41 4.25 48.44.35 96.89.22 145.34.15 6.57 0 12.42 1.55 16.84 6.59 5.18 5.92 6.61 12.82 3.75 20.2-2.85 7.36-8.51 11.45-16.32 12.52-1.29.18-2.62.15-3.93.15-49.43 0-98.86.13-148.3-.04-34.63-.12-63.77-20.95-75.1-53.41-1.87-5.36-2.89-11.01-4.31-16.52V112.41c.32-.89.79-1.76.93-2.69 3.89-24.08 16.26-42.53 36.8-55.56 14.65-9.29 30.85-12.31 47.95-11.76 5.83.19 11.68.03 17.8.03 0-5.39.26-10.15-.05-14.86-.82-12.2 4.07-20.55 15.82-24.56h7.88c11.75 4.01 16.63 12.36 15.82 24.55-.32 4.83-.05 9.71-.05 14.53h88.7c0-5.07.26-9.82-.05-14.53-.82-12.19 4.07-20.54 15.82-24.55h7.88c11.75 4.01 16.63 12.36 15.82 24.55-.32 4.83-.05 9.71-.05 14.53h89.69c0-5.07.26-9.82-.05-14.53-.82-12.19 4.07-20.54 15.82-24.55h7.88Z" class="cls-1"/><path d="M122.25 3c-11.75 4.02-16.64 12.37-15.82 24.56.32 4.71.05 9.47.05 14.86-6.12 0-11.97.16-17.8-.03-17.1-.55-33.3 2.47-47.95 11.76C20.2 67.18 7.82 85.64 3.93 109.71c-.15.92-.62 1.79-.93 2.69V3h119.25ZM379.49 3c-11.75 4.01-16.64 12.36-15.82 24.55.32 4.71.05 9.47.05 14.53h-89.69c0-4.83-.27-9.7.05-14.53.81-12.2-4.07-20.54-15.82-24.55h121.23ZM250.38 3c-11.75 4.01-16.64 12.36-15.82 24.55.32 4.71.05 9.47.05 14.53h-88.7c0-4.83-.27-9.7.05-14.53.81-12.2-4.07-20.54-15.82-24.55h120.24Z" class="cls-2"/><path d="M269.12 388.53c-.17-65.42 53.31-119.11 118.95-119.41 65.54-.3 119.61 53.68 119.53 119.32-.08 65.53-53.68 119.11-119.19 119.16-65.47.05-119.11-53.5-119.28-119.07Zm199.05-.2c-.02-43.94-36.05-79.89-79.97-79.78-43.76.1-79.52 35.84-79.66 79.6-.14 43.91 35.78 79.97 79.73 80.03 43.92.06 79.93-35.92 79.91-79.85ZM126.11 190.29c10.84-.05 19.78 8.88 19.76 19.72-.02 10.84-9 19.73-19.84 19.64-10.64-.09-19.4-8.83-19.51-19.47-.11-10.84 8.76-19.84 19.59-19.88ZM211.99 229.65c-10.84.03-19.77-8.91-19.73-19.75.04-10.84 9.03-19.71 19.87-19.61 10.64.11 19.39 8.86 19.48 19.5.1 10.84-8.79 19.82-19.62 19.85ZM317.36 210.13c-.09 10.83-9.12 19.67-19.95 19.52-10.83-.15-19.62-9.25-19.4-20.08.22-10.64 9.07-19.29 19.71-19.27 10.84.02 19.73 9 19.64 19.83ZM403.11 210c-.02 10.84-9 19.73-19.83 19.64-10.83-.09-19.67-9.12-19.52-19.95.15-10.64 8.94-19.35 19.59-19.4 10.84-.05 19.79 8.87 19.77 19.71ZM145.87 295.58c.07 10.84-8.83 19.8-19.67 19.81-10.84 0-19.75-8.95-19.69-19.79.06-10.64 8.78-19.42 19.42-19.56 10.83-.14 19.86 8.71 19.93 19.54ZM231.62 295.71c0 10.84-8.95 19.75-19.79 19.69-10.84-.06-19.69-9.08-19.56-19.91.13-10.64 8.9-19.37 19.54-19.44 10.84-.07 19.8 8.83 19.81 19.67ZM106.52 381.26c.11-10.83 9.17-19.65 20-19.48 10.83.18 19.6 9.29 19.35 20.12-.24 10.64-9.11 19.27-19.75 19.23-10.84-.04-19.71-9.04-19.6-19.87ZM211.92 401.14c-10.84-.01-19.73-8.99-19.65-19.82.08-10.83 9.11-19.68 19.95-19.53 10.64.15 19.35 8.93 19.4 19.58.05 10.83-8.87 19.79-19.7 19.77Z" class="cls-1"/><path d="M468.18 388.33c.02 43.93-35.98 79.91-79.91 79.85-43.94-.06-79.86-36.12-79.73-80.03.14-43.77 35.9-79.5 79.66-79.6 43.92-.1 79.95 35.85 79.97 79.78Zm-60.15-19.65c0-7.68.23-14.57-.05-21.43-.43-10.73-8.95-18.88-19.43-18.97-10.67-.1-19.54 8.15-19.78 19.1-.3 13.77-.28 27.55-.02 41.32.2 10.83 8.29 18.96 19.07 19.27 9.83.29 19.68.27 29.52.01 10.99-.29 19.29-8.94 19.29-19.61 0-10.66-8.29-19.18-19.27-19.67-2.91-.13-5.83-.02-9.33-.02Z" class="cls-2"/><path d="M408.02 368.68c3.5 0 6.42-.11 9.33.02 10.98.49 19.27 9.01 19.27 19.67 0 10.67-8.3 19.32-19.29 19.61-9.83.26-19.68.28-29.52-.01-10.78-.32-18.87-8.45-19.07-19.27-.25-13.77-.28-27.56.02-41.32.24-10.95 9.11-19.2 19.78-19.1 10.48.1 18.99 8.25 19.43 18.97.28 6.87.05 13.75.05 21.43Z" class="cls-1"/></svg>
