<?xml version="1.0" encoding="UTF-8"?>
<svg id="Layer_2" data-name="Layer 2" xmlns="http://www.w3.org/2000/svg" viewBox="0 0 512 512">
  <defs>
    <style>
      .cls-1, .cls-2 {
        stroke-width: 0px;
      }

      .cls-2 {
        fill: #fff;
      }
    </style>
  </defs>
  <path class="cls-2" d="m5,236.92c0-77.31,0-154.61,0-231.92,167.33,0,334.67,0,502,0v502H5c0-81.55,0-163.09,0-244.64.3,1.41.58,2.83.9,4.24,3.12,13.78,4.97,28,9.61,41.25,13.42,38.29,39.12,67.24,72.19,89.96,3.23,2.22,4.1,4.32,3.38,7.97-3.26,16.75-10.42,31.49-22.28,43.8-7.35,7.63-14.96,15.03-22.43,22.55-.96.97-1.81,2.06-3.36,3.85,12.66,0,24.35.13,36.04-.02,34.85-.47,64.75-13.14,89.93-37.05,2.53-2.4,4.68-2.61,7.83-1.85,50.24,12.08,100.73,12.86,151.26,2.31,45.95-9.59,86.87-29.14,120.67-62.45,58.19-57.33,73.98-145.25,38.44-218.73-23.86-49.33-63.13-82.27-113.48-102.29-49.51-19.69-101.1-24.48-153.74-18.67-48.13,5.32-92.1,21.84-130.56,51.61C48.89,120.2,21.11,160.17,9.47,210.54c-2.01,8.67-3,17.58-4.47,26.38Z"/>
  <path class="cls-1" d="m5,236.92c1.46-8.8,2.46-17.7,4.47-26.38,11.65-50.37,39.43-90.34,79.93-121.7,38.46-29.78,82.43-46.3,130.56-51.61,52.64-5.82,104.23-1.02,153.74,18.67,50.34,20.02,89.61,52.97,113.48,102.29,35.54,73.47,19.75,161.39-38.44,218.73-33.8,33.31-74.73,52.86-120.67,62.45-50.54,10.55-101.03,9.77-151.26-2.31-3.15-.76-5.3-.55-7.83,1.85-25.17,23.91-55.08,36.58-89.93,37.05-11.69.16-23.38.02-36.04.02,1.55-1.79,2.39-2.88,3.36-3.85,7.47-7.52,15.07-14.92,22.43-22.55,11.86-12.31,19.02-27.05,22.28-43.8.71-3.66-.15-5.75-3.38-7.97-33.07-22.72-58.77-51.67-72.19-89.96-4.64-13.25-6.49-27.47-9.61-41.25-.32-1.41-.6-2.83-.9-4.24,0-8.48,0-16.96,0-25.44Zm107.13,203.55c.08-.02.87-.21,1.62-.5,18.48-6.98,33.44-18.74,45.66-34.08,1.98-2.48,3.76-3.31,6.99-2.3,48.9,15.22,98.62,17.42,148.85,8.39,39.87-7.16,76.59-21.97,106.42-50.05,47.77-44.97,65.52-99.97,48.93-163.9-13.04-50.25-46.29-84.73-91.94-107.76-30.71-15.49-63.68-22.69-97.8-25.04-40.96-2.82-81.12.92-119.59,16.21-48.96,19.46-86.93,51.48-110.41,99.24-29.24,59.47-19.61,122.73,25.39,169.46,12.42,12.89,26.75,23.31,42,32.56,1.62.99,3.44,3.24,3.49,4.95.16,5.52.18,11.19-.93,16.56-2.52,12.18-5.75,24.21-8.69,36.24Z"/>
  <path class="cls-2" d="m112.13,440.47c2.93-12.04,6.16-24.07,8.69-36.24,1.11-5.37,1.09-11.04.93-16.56-.05-1.71-1.86-3.97-3.49-4.95-15.26-9.26-29.59-19.67-42-32.56-45-46.73-54.63-109.98-25.39-169.46,23.49-47.77,61.45-79.78,110.41-99.24,38.47-15.29,78.63-19.03,119.59-16.21,34.12,2.35,67.09,9.55,97.8,25.04,45.65,23.03,78.9,57.52,91.94,107.76,16.59,63.93-1.16,118.94-48.93,163.9-29.83,28.08-66.55,42.89-106.42,50.05-50.23,9.02-99.95,6.83-148.85-8.39-3.23-1.01-5.01-.18-6.99,2.3-12.22,15.34-27.18,27.09-45.66,34.08-.75.28-1.54.47-1.62.5Z"/>
</svg>