<?xml version="1.0" encoding="UTF-8"?>
<svg id="Layer_2" data-name="Layer 2" xmlns="http://www.w3.org/2000/svg" viewBox="0 0 512 512">
  <defs>
    <style>
      .cls-1, .cls-2 {
        stroke-width: 0px;
      }

      .cls-2 {
        fill: #fff;
      }
    </style>
  </defs>
  <path class="cls-2" d="m6,312.29V6c58.2,0,116.4,0,174.6,0-1.22.34-2.42.81-3.66,1-14.4,2.23-27.55,7.5-38.93,16.65-34.04,27.38-45.07,76.75-26.47,116.98,10.13,21.91,24.9,40.46,42.62,56.38,32.26,28.99,65.21,57.2,97.95,85.64,6.59,5.72,13.97,5.65,20.72-.15,30.05-25.85,60.18-51.61,89.93-77.81,14.77-13.01,28.05-27.52,39.15-43.9,16.24-23.97,23.31-49.94,18.8-78.95-5.55-35.66-30.81-64.31-65.46-73.35-3.57-.93-7.19-1.66-10.78-2.49,53.97,0,107.95,0,161.92,0v500.4c-166.8,0-333.6,0-500.4,0,0-4.23,0-8.45,0-12.68,2.73,7.14,7.37,11.72,15.52,11.71,20.15-.02,40.31.08,60.46-.07,11.01-.08,20.64-4.1,28.58-11.71,2.54-2.43,4.7-3,8.14-2.02,24.74,7.03,49.89,12.5,75.65,12.89,50.37.76,100.75,1.08,151.12.71,31.21-.23,57.57-12.65,77.44-36.91,13.68-16.7,26.28-34.29,39.24-51.58,12.37-16.5,25.23-32.7,36.7-49.81,13.4-19.99,5.43-48.77-15.61-60.32-19-10.43-39.68-6.93-55.31,9.6-12.62,13.34-25.07,26.84-37.54,40.32-1.16,1.26-1.9,2.9-2.84,4.37-1.38-1.37-1.71-1.54-1.82-1.81-8.3-20.37-23.82-29.41-45.41-29.25-19.01.14-38.04-.35-57.04.16-13.74.37-24.92-4.18-35.79-12.52-34.37-26.35-71.6-29.9-110.67-11.21-7.06,3.37-13.41,8.22-20.19,12.46-10.08-13.17-23.62-18.49-39.98-18.18-17.22.33-34.46.35-51.68-.04-9.25-.21-15.76,2.83-18.96,11.79Z"/>
  <path class="cls-1" d="m6,312.29c3.2-8.96,9.71-12,18.96-11.79,17.22.39,34.46.37,51.68.04,16.36-.32,29.9,5,39.98,18.18,6.78-4.23,13.14-9.08,20.19-12.46,39.07-18.68,76.3-15.14,110.67,11.21,10.87,8.33,22.05,12.89,35.79,12.52,19-.51,38.03-.02,57.04-.16,21.59-.16,37.11,8.88,45.41,29.25.11.27.44.44,1.82,1.81.94-1.46,1.68-3.11,2.84-4.37,12.47-13.48,24.92-26.98,37.54-40.32,15.63-16.53,36.31-20.03,55.31-9.6,21.04,11.55,29.01,40.33,15.61,60.32-11.47,17.11-24.33,33.31-36.7,49.81-12.96,17.29-25.56,34.88-39.24,51.58-19.87,24.26-46.23,36.68-77.44,36.91-50.37.37-100.75.05-151.12-.71-25.76-.39-50.91-5.86-75.65-12.89-3.44-.98-5.6-.41-8.14,2.02-7.93,7.61-17.57,11.63-28.58,11.71-20.15.15-40.3.04-60.46.07-8.15,0-12.79-4.57-15.52-11.71v-181.43Zm119.02,150.71c29.9,8.85,60,13.15,90.72,13.16,41.94.02,83.87-.07,125.81.03,26.22.06,47.16-10.28,62.88-31.23,22.33-29.76,44.66-59.52,66.96-89.31,1.26-1.68,2.48-3.46,3.33-5.36,3.59-7.98-.48-16.89-8.82-19.6-7.02-2.27-12.23.68-16.87,5.67-20.24,21.8-40.58,43.5-60.78,65.33-9.69,10.48-21.47,15.96-35.78,15.96-36.73,0-73.47.02-110.2-.02-9.82,0-16.47-6.12-16.34-14.81.13-8.54,6.64-14.38,16.25-14.43,10.89-.06,21.78-.01,32.67-.02,22.76,0,45.51.02,68.27-.02,7.42-.01,12.69-3.43,14.98-9.49,3.73-9.86-3.48-19.66-14.74-19.73-19.5-.11-39.03-.55-58.51.1-21.54.72-39.82-5.83-56.46-19.61-17.35-14.36-37.88-18.37-60.06-14-16.11,3.17-28.95,11.96-40.41,23.11-1.51,1.47-2.74,4.03-2.77,6.11-.22,16.9-.12,33.81-.12,50.71,0,19.01,0,38.01,0,57.42Zm-89.6,13.16c14.89,0,29.33.03,43.76-.01,10.8-.03,16.56-5.78,16.57-16.57.03-37.72.03-75.43,0-113.15,0-10.77-5.8-16.52-16.6-16.56-13.17-.05-26.34-.02-39.5,0-1.39,0-2.78.19-4.22.3v145.99Z"/>
  <path class="cls-1" d="m344.48,6c3.59.83,7.21,1.56,10.78,2.49,34.65,9.03,59.91,37.68,65.46,73.35,4.51,29-2.56,54.98-18.8,78.95-11.1,16.39-24.38,30.89-39.15,43.9-29.74,26.2-59.88,51.96-89.93,77.81-6.75,5.81-14.13,5.88-20.72.15-32.74-28.44-65.7-56.66-97.95-85.64-17.72-15.92-32.49-34.47-42.62-56.38-18.6-40.23-7.57-89.6,26.47-116.98,11.38-9.15,24.53-14.42,38.93-16.65,1.24-.19,2.44-.66,3.66-1,5.85,0,11.71,0,17.56,0,.92.28,1.82.71,2.75.83,15.2,2.07,28.9,7.81,40.23,18.08,7.74,7.02,14.49,15.14,21.86,22.95.49-.66,1.44-1.92,2.35-3.2,10.1-14.13,22.34-25.88,38.69-32.33,7.32-2.89,15.23-4.27,22.87-6.34,5.85,0,11.71,0,17.56,0Zm-82.33,246.72c.72-.42,1.19-.6,1.54-.9,26.69-23.05,53.6-45.86,79.97-69.27,13.98-12.42,26.8-26.12,36.65-42.21,15.14-24.74,17.63-50.41,3.38-76.26-16.64-30.16-54.84-38.01-81.08-17.08-11.34,9.05-18.53,21.16-23.89,34.45-1.09,2.71-2.06,5.47-3.27,8.12-2.55,5.6-7.06,8.38-13.13,8.37-6.09-.01-10.42-3-13.1-8.48-4.55-9.3-8.4-19.06-13.9-27.77-17.8-28.17-53.22-34.85-78.79-15.42-20.33,15.45-29.52,44.93-22.27,71.16,4.85,17.56,14.41,32.54,27.18,44.97,20.94,20.38,42.75,39.89,64.47,59.46,11.8,10.63,24.18,20.63,36.26,30.87Z"/>
  <path class="cls-2" d="m326.92,6c-7.64,2.07-15.55,3.45-22.87,6.34-16.35,6.45-28.59,18.19-38.69,32.33-.92,1.28-1.86,2.54-2.35,3.2-7.37-7.81-14.12-15.93-21.86-22.95-11.33-10.27-25.04-16.01-40.23-18.08-.94-.13-1.84-.55-2.75-.83,42.92,0,85.84,0,128.76,0Z"/>
  <path class="cls-2" d="m125.02,463c0-19.41,0-38.41,0-57.42,0-16.9-.1-33.81.12-50.71.03-2.07,1.26-4.64,2.77-6.11,11.46-11.15,24.3-19.93,40.41-23.11,22.18-4.36,42.71-.36,60.06,14,16.65,13.78,34.93,20.33,56.46,19.61,19.48-.65,39.01-.22,58.51-.1,11.27.07,18.48,9.86,14.74,19.73-2.29,6.05-7.56,9.47-14.98,9.49-22.76.04-45.51.02-68.27.02-10.89,0-21.78-.04-32.67.02-9.61.05-16.12,5.88-16.25,14.43-.13,8.69,6.52,14.8,16.34,14.81,36.73.03,73.47,0,110.2.02,14.31,0,26.08-5.48,35.78-15.96,20.2-21.83,40.54-43.54,60.78-65.33,4.64-4.99,9.85-7.94,16.87-5.67,8.35,2.7,12.41,11.62,8.82,19.6-.86,1.9-2.08,3.68-3.33,5.36-22.3,29.78-44.63,59.55-66.96,89.31-15.72,20.95-36.65,31.29-62.88,31.23-41.94-.1-83.87-.01-125.81-.03-30.72-.01-60.83-4.31-90.72-13.16Z"/>
  <path class="cls-2" d="m35.41,476.16v-145.99c1.45-.11,2.84-.29,4.22-.3,13.17-.02,26.34-.05,39.5,0,10.8.04,16.59,5.79,16.6,16.56.03,37.72.03,75.43,0,113.15,0,10.79-5.77,16.54-16.57,16.57-14.43.04-28.87.01-43.76.01Z"/>
  <path class="cls-2" d="m262.15,252.72c-12.07-10.24-24.45-20.24-36.26-30.87-21.72-19.57-43.52-39.08-64.47-59.46-12.77-12.43-22.33-27.41-27.18-44.97-7.24-26.22,1.94-55.71,22.27-71.16,25.57-19.43,60.99-12.75,78.79,15.42,5.5,8.71,9.34,18.47,13.9,27.77,2.68,5.48,7.02,8.46,13.1,8.48,6.06.01,10.58-2.77,13.13-8.37,1.21-2.65,2.17-5.41,3.27-8.12,5.36-13.29,12.55-25.4,23.89-34.45,26.25-20.93,64.45-13.08,81.08,17.08,14.26,25.85,11.76,51.52-3.38,76.26-9.84,16.09-22.66,29.79-36.65,42.21-26.37,23.41-53.28,46.22-79.97,69.27-.36.31-.82.49-1.54.9Z"/>
</svg>