<svg xmlns="http://www.w3.org/2000/svg" viewBox="0 0 512 512"><path d="M525 525H-13V-13h538v538ZM254.09 402.62c58.74-.3 110.53-16.09 155.98-49.82 27.33-20.29 53.16-42.61 79.6-64.1 22.6-18.36 22.53-46.1-.03-64.54-20.84-17.03-41.75-33.96-62.46-51.15-40.4-33.53-86.36-54.41-138.61-60.54-66.37-7.78-127.77 6.65-182.23 45.37-28.99 20.61-55.77 44.35-83.46 66.79-22.11 17.91-21.98 45.71.1 63.77 20.7 16.93 41.49 33.73 62.02 50.86 49.62 41.42 106.6 62.74 169.1 63.35Z" class="cls-2"/><path d="M254.09 402.62c-62.51-.62-119.48-21.93-169.1-63.35-20.52-17.13-41.32-33.94-62.02-50.86-22.08-18.06-22.2-45.86-.1-63.77 27.69-22.44 54.47-46.17 83.46-66.79 54.47-38.73 115.86-53.15 182.23-45.37 52.26 6.13 98.21 27.01 138.61 60.54 20.71 17.19 41.62 34.12 62.46 51.15 22.56 18.44 22.63 46.18.03 64.54-26.44 21.48-52.26 43.81-79.6 64.1-45.46 33.73-97.24 49.52-155.98 49.82Zm2.24-40c58.78.19 106.01-46.97 106.32-106.16.3-58.36-47.29-106.16-105.76-106.2-58.61-.05-106.26 46.83-106.58 104.87-.34 59.72 46.59 107.3 106.02 107.49Zm114.38-23.47c5.78-3.74 11.93-7.02 17.29-11.29 27.45-21.89 54.72-44 81.98-66.13 4.65-3.77 4.4-6.96-.6-11.05-16.5-13.5-32.92-27.09-49.63-40.32-13.27-10.5-26.91-20.56-40.46-30.71-2.5-1.87-5.38-3.25-8.08-4.85 16.35 25.35 25.16 52.45 25.03 82.38-.14 29.86-9.25 56.81-25.53 81.97Zm-230.07.02c.44-.49.88-.99 1.32-1.48-34.05-54.18-34.05-108.39.92-163.92-7.34 4.78-13.67 8.21-19.21 12.63-27.02 21.56-53.86 43.35-80.69 65.15-4.08 3.31-3.76 6.73.67 10.38 17.81 14.63 35.52 29.39 53.53 43.78 14.29 11.41 28.96 22.33 43.47 33.48Z" class="cls-1"/><path d="M256.33 362.61c-59.43-.19-106.36-47.78-106.02-107.49.33-58.03 47.98-104.91 106.58-104.87 58.47.05 106.06 47.84 105.76 106.2-.31 59.19-47.54 106.35-106.32 106.16Zm17.2-170.62c-25.54-9.06-58.49 3.97-74.18 29.34-16.6 26.84-12.17 61.56 10.66 83.58 22.51 21.71 57.46 24.85 83.52 7.51 24.18-16.09 36.56-49.22 27.31-73.07-18.51 8.54-31.6 7.43-42.96-3.62-11.49-11.18-12.78-24.18-4.34-43.74ZM370.71 339.14c16.28-25.16 25.39-52.11 25.53-81.97.14-29.93-8.67-57.03-25.03-82.38 2.7 1.6 5.58 2.98 8.08 4.85 13.55 10.15 27.18 20.2 40.46 30.71 16.71 13.22 33.13 26.82 49.63 40.32 5 4.09 5.25 7.28.6 11.05-27.26 22.13-54.53 44.24-81.98 66.13-5.36 4.27-11.51 7.55-17.29 11.29ZM140.63 339.16c-14.5-11.14-29.18-22.07-43.47-33.48-18.01-14.38-35.72-29.14-53.53-43.78-4.44-3.65-4.75-7.06-.67-10.38 26.84-21.79 53.67-43.59 80.69-65.15 5.54-4.42 11.87-7.85 19.21-12.63-34.97 55.53-34.97 109.74-.92 163.92-.44.49-.88.99-1.32 1.48Z" class="cls-2"/><path d="M273.53 191.99c-8.44 19.56-7.15 32.56 4.34 43.74 11.36 11.06 24.45 12.16 42.96 3.62 9.25 23.85-3.13 56.98-27.31 73.07-26.07 17.34-61.01 14.2-83.52-7.51-22.83-22.02-27.26-56.75-10.66-83.58 15.69-25.37 48.65-38.4 74.18-29.34Z" class="cls-1"/></svg>
