<?xml version="1.0" encoding="UTF-8"?>
<svg id="Layer_2" data-name="Layer 2" xmlns="http://www.w3.org/2000/svg" viewBox="0 0 512 512">
  <defs>
    <style>
      .cls-1, .cls-2 {
        stroke-width: 0px;
      }

      .cls-2 {
        fill: #fff;
      }
    </style>
  </defs>
  <path class="cls-2" d="m533,533H-21V-21h554v554Zm-151.28-221.32c-14.96,0-29.52-.03-44.07.01-9.63.03-13.29,3.77-13.37,13.47-.02,1.8,0,3.6,0,5.4-.09,55.63-.18,111.25-.29,166.88-.01,7.24,4.38,11.78,11.68,11.79,14.58.03,29.16.12,43.74-.05,70.91-.85,129.25-58.68,129.69-129.58.5-82.09.5-164.19,0-246.28-.43-70.93-58.76-129.14-129.66-129.52-81.9-.44-163.81-.44-245.72,0C62.54,4.16,4.22,62.48,3.84,133.65c-.43,81.91-.44,163.83,0,245.75.38,70.88,58.68,129.07,129.5,129.73,43.02.41,86.05.12,129.07.11,7.24,0,11.34-4.06,11.35-11.37.04-57.97.04-115.94,0-173.91,0-8.07-4.2-12.17-12.45-12.25-11.16-.1-22.32-.03-33.48-.03-4.81,0-9.61,0-14.59,0v-47.4c2.28,0,4.21,0,6.15,0,13.68,0,27.36.03,41.04-.01,9.71-.03,13.35-3.68,13.36-13.39.02-22.5.39-45.02-.09-67.51-.54-25.2,11.29-42.07,33.54-52.26,22.02-10.09,45.37-11.97,69.17-10.12,6.52.5,13.01,1.53,19.37,2.3v44.54h-6.63c-10.08,0-20.16,0-30.24,0-20.4,0-33.08,11.01-34.25,31.52-.98,17.22-.35,34.53-.35,51.8,0,9.45,3.64,13.09,13.03,13.12,15.3.05,30.6.01,45.9.02,1.88,0,3.76,0,6.09,0-2.61,16.28-5.07,31.66-7.6,47.4Z"/>
  <path class="cls-1" d="m381.72,311.68c2.52-15.74,4.99-31.12,7.6-47.4-2.33,0-4.21,0-6.09,0-15.3,0-30.6.04-45.9-.02-9.39-.03-13.03-3.67-13.03-13.12,0-17.27-.64-34.58.35-51.8,1.17-20.51,13.86-31.51,34.25-31.52,10.08,0,20.16,0,30.24,0h6.63v-44.54c-6.36-.77-12.84-1.8-19.37-2.3-23.8-1.84-47.15.04-69.17,10.12-22.25,10.19-34.09,27.06-33.54,52.26.49,22.49.12,45.01.09,67.51,0,9.7-3.64,13.36-13.36,13.39-13.68.04-27.36.01-41.04.01-1.93,0-3.87,0-6.15,0v47.4c4.98,0,9.79,0,14.59,0,11.16,0,22.32-.08,33.48.03,8.25.08,12.45,4.18,12.45,12.25.04,57.97.03,115.94,0,173.91,0,7.31-4.1,11.36-11.35,11.37-43.02.01-86.05.3-129.07-.11-70.82-.67-129.11-58.86-129.5-129.73-.44-81.91-.43-163.83,0-245.75C4.22,62.48,62.54,4.16,133.72,3.79c81.9-.43,163.81-.44,245.72,0,70.9.38,129.22,58.59,129.66,129.52.5,82.09.5,164.19,0,246.28-.44,70.9-58.78,128.74-129.69,129.58-14.58.17-29.16.08-43.74.05-7.3-.01-11.69-4.55-11.68-11.79.11-55.63.2-111.25.29-166.88,0-1.8-.01-3.6,0-5.4.08-9.71,3.74-13.44,13.37-13.47,14.55-.05,29.11-.01,44.07-.01Zm-35.5,176.64c16.86-.75,33.46.23,49.43-2.51,54.9-9.41,91.93-54.42,91.97-110.11.05-79.57.05-159.15-.05-238.72,0-6.45-.33-13.01-1.44-19.35-9.56-54.54-54.53-92.29-109.98-92.35-79.74-.08-159.49-.05-239.23.04-6.45,0-13.01.32-19.34,1.45-54.56,9.68-92.19,54.63-92.24,110.09-.06,79.75-.05,159.51.05,239.26,0,6.63.38,13.37,1.6,19.87,10.3,54.85,54.72,91.57,110.58,91.63,36.18.04,72.36,0,108.55,0h5.75v-154.35c-2.06,0-3.82,0-5.57,0-13.86,0-27.72.02-41.58,0-9.78-.02-13.4-3.55-13.42-13.3-.05-21.24-.05-42.49,0-63.73.02-9.94,3.73-13.53,13.85-13.56,13.68-.04,27.36-.01,41.04-.01,1.89,0,3.78,0,5.99,0,0-20.97-.13-41.11.08-61.25.06-6.08.46-12.28,1.7-18.22,5.27-25.16,21.42-41.51,44.14-51.61,35.46-15.75,72.29-15.53,109.52-7.81,7.39,1.53,10,4.9,10.02,12.41.06,20.16.07,40.33,0,60.49-.03,8.91-3.95,12.7-12.97,12.73-15.3.04-30.6,0-45.9.02-8.83,0-12.33,2.59-12.74,11.58-.58,12.55-.16,25.15-.13,37.73,0,1.19.3,2.38.51,3.93,2.23,0,4.18,0,6.14,0,15.84,0,31.68-.08,47.52.04,8.52.06,13.58,5.08,12.44,12.61-3.41,22.58-7.07,45.13-10.64,67.69-.73,4.6-2.91,8.22-7.49,9.68-1.99.64-4.26.56-6.4.57-13.81.05-27.63.02-41.77.02v155.04Z"/>
  <path class="cls-2" d="m346.22,488.32v-155.04c14.14,0,27.95.02,41.77-.02,2.14,0,4.41.07,6.4-.57,4.58-1.47,6.76-5.09,7.49-9.68,3.57-22.56,7.23-45.1,10.64-67.69,1.14-7.53-3.93-12.55-12.44-12.61-15.84-.11-31.68-.03-47.52-.04-1.95,0-3.91,0-6.14,0-.21-1.55-.5-2.74-.51-3.93-.03-12.58-.44-25.17.13-37.73.41-8.99,3.9-11.58,12.74-11.58,15.3,0,30.6.03,45.9-.02,9.02-.03,12.94-3.82,12.97-12.73.07-20.16.06-40.33,0-60.49-.02-7.5-2.64-10.88-10.02-12.41-37.23-7.72-74.06-7.94-109.52,7.81-22.72,10.09-38.87,26.44-44.14,51.61-1.24,5.94-1.64,12.13-1.7,18.22-.2,20.14-.08,40.28-.08,61.25-2.22,0-4.11,0-5.99,0-13.68,0-27.36-.03-41.04.01-10.12.03-13.83,3.62-13.85,13.56-.05,21.24-.05,42.49,0,63.73.03,9.75,3.64,13.28,13.42,13.3,13.86.03,27.72,0,41.58,0,1.76,0,3.51,0,5.57,0v154.35h-5.75c-36.18,0-72.36.03-108.55,0-55.86-.06-100.28-36.78-110.58-91.63-1.22-6.5-1.59-13.24-1.6-19.87-.11-79.75-.12-159.51-.05-239.26.04-55.46,37.68-100.41,92.24-110.09,6.34-1.12,12.89-1.44,19.34-1.45,79.74-.09,159.49-.12,239.23-.04,55.45.06,100.42,37.81,109.98,92.35,1.11,6.34,1.43,12.89,1.44,19.35.09,79.57.1,159.15.05,238.72-.04,55.69-37.07,100.7-91.97,110.11-15.97,2.74-32.58,1.76-49.43,2.51Z"/>
</svg>