<?xml version="1.0" encoding="UTF-8"?>
<svg id="Layer_2" data-name="Layer 2" xmlns="http://www.w3.org/2000/svg" viewBox="0 0 512 512">
  <defs>
    <style>
      .cls-1, .cls-2 {
        stroke-width: 0px;
      }

      .cls-2 {
        fill: #fff;
      }
    </style>
  </defs>
  <path class="cls-1" d="m180.54,3c50.3,0,100.61,0,150.91,0,2.92.27,5.85.54,8.77.81,18.95,1.71,38.24,1.74,56.79,5.47,49.11,9.87,83.31,38.39,100.58,86.01,8.35,23.03,10.28,47.11,10.36,71.33.18,57.86.44,115.73-.17,173.58-.19,18.32-1.46,36.91-4.96,54.84-9.44,48.35-37.08,82.54-83.46,100.61-22.37,8.71-45.94,11.03-69.68,11.27-53.25.53-106.51,1.03-159.76.74-26.24-.14-52.61-.25-78.42-6.51-41.79-10.14-72.84-33.83-91.3-72.97-11.36-24.08-14.83-49.99-15.11-76.28-.58-54.57-1.18-109.14-.75-163.7.18-22.94,1.57-46.06,4.92-68.73,5.22-35.33,22.24-64.66,51.14-86.34C85.18,14.55,113.85,7.16,144.19,5.01c12.11-.86,24.24-1.35,36.36-2.01Zm75.84,460.39c0-.26.01-.52.02-.78,13.31,0,26.64.4,39.94-.08,28.72-1.03,57.65-.67,86.07-4.26,38.84-4.91,65.09-27.32,74.57-65.98,3.83-15.63,5.09-32.16,5.41-48.32.92-46.67,1.23-93.36.86-140.03-.19-24.44-.98-49.03-3.83-73.28-4.8-40.74-30.34-68.21-70.67-76.28-17.26-3.46-35.22-4.47-52.88-4.73-47-.69-94.02-.8-141.02-.26-22.29.26-44.78,1.06-66.79,4.25-38.58,5.59-64.84,30.66-72.6,68.63-3.36,16.45-4.53,33.55-4.88,50.39-.87,40.75-1.18,81.53-.74,122.29.31,28.23,1.03,56.56,3.78,84.63,2.83,28.9,16.57,52.42,42.44,67.38,15.83,9.16,33.38,12.98,51.42,13.62,36.29,1.29,72.61,1.91,108.92,2.81Z"/>
  <path class="cls-2" d="m180.54,3c-12.12.66-24.25,1.15-36.36,2.01-30.33,2.15-59.01,9.53-83.78,28.12C31.51,54.82,14.49,84.14,9.27,119.47c-3.35,22.67-4.74,45.79-4.92,68.73-.44,54.56.17,109.14.75,163.7.28,26.29,3.75,52.2,15.11,76.28,18.46,39.14,49.51,62.83,91.3,72.97,25.81,6.26,52.18,6.36,78.42,6.51,53.25.29,106.51-.21,159.76-.74,23.73-.24,47.31-2.56,69.68-11.27,46.38-18.06,74.02-52.26,83.46-100.61,3.5-17.93,4.77-36.53,4.96-54.84.61-57.85.35-115.72.17-173.58-.07-24.22-2.01-48.3-10.36-71.33-17.27-47.62-51.47-76.14-100.58-86.01-18.55-3.73-37.84-3.75-56.79-5.47-2.93-.26-5.85-.54-8.77-.81,59.18,0,118.36,0,177.54,0v506c-168.67,0-337.33,0-506,0,0-168.67,0-337.33,0-506,59.18,0,118.36,0,177.54,0Z"/>
  <path class="cls-2" d="m256.39,463.39c-36.31-.9-72.62-1.52-108.92-2.81-18.04-.64-35.59-4.46-51.42-13.62-25.88-14.96-39.62-38.48-42.44-67.38-2.75-28.07-3.47-56.4-3.78-84.63-.44-40.76-.13-81.54.74-122.29.36-16.84,1.52-33.93,4.88-50.39,7.76-37.97,34.02-63.04,72.6-68.63,22.01-3.19,44.5-3.99,66.79-4.25,47-.55,94.02-.43,141.02.26,17.67.26,35.62,1.27,52.88,4.73,40.34,8.08,65.87,35.54,70.67,76.28,2.86,24.25,3.64,48.83,3.83,73.28.37,46.68.06,93.37-.86,140.03-.32,16.16-1.58,32.69-5.41,48.32-9.48,38.65-35.73,61.07-74.57,65.98-28.42,3.59-57.35,3.23-86.07,4.26-13.3.48-26.63.08-39.94.08,0,.26-.01.52-.02.78ZM126.68,255.69c.25,71.73,58.57,129.86,130.01,129.61,71.73-.26,129.91-58.76,129.42-130.13-.49-71.82-58.15-129.3-129.69-129.29-71.64.01-129.99,58.4-129.74,129.81ZM421.47,120.48c-.11-16.96-13.62-30.18-30.63-29.96-16.67.21-29.87,13.68-29.79,30.38.08,16.74,13.87,30.23,30.71,30.04,16.6-.18,29.82-13.74,29.71-30.46Z"/>
  <path class="cls-1" d="m126.68,255.69c-.25-71.41,58.1-129.8,129.74-129.81,71.54-.01,129.2,57.47,129.69,129.29.49,71.37-57.69,129.87-129.42,130.13-71.44.26-129.76-57.88-130.01-129.61Zm45.71-.18c-.04,46.53,37.35,84.01,83.89,84.08,46.58.08,84.05-37.19,84.21-83.76.16-46.74-37.37-84.37-84.14-84.34-46.53.03-83.93,37.45-83.97,84.01Z"/>
  <path class="cls-1" d="m421.47,120.48c.11,16.73-13.11,30.28-29.71,30.46-16.84.19-30.63-13.3-30.71-30.04-.08-16.71,13.12-30.18,29.79-30.38,17.01-.21,30.52,13,30.63,29.96Z"/>
  <path class="cls-2" d="m172.39,255.51c.04-46.56,37.44-83.98,83.97-84.01,46.76-.03,84.3,37.6,84.14,84.34-.16,46.57-37.63,83.83-84.21,83.76-46.54-.08-83.93-37.55-83.89-84.08Z"/>
</svg>