<?xml version="1.0" encoding="UTF-8"?>
<svg id="Layer_2" data-name="Layer 2" xmlns="http://www.w3.org/2000/svg" viewBox="0 0 512 512">
  <defs>
    <style>
      .cls-1, .cls-2 {
        stroke-width: 0px;
      }

      .cls-2 {
        fill: #fff;
      }
    </style>
  </defs>
  <path class="cls-2" d="m246.15,3c87.64,0,175.28,0,262.93,0v507.07H2c0-169.02,0-338.05,0-507.07,72.82,0,145.63,0,218.45,0-1.24.32-2.46.78-3.72.93-18.6,2.3-35.86,8.3-51.36,18.92-27.82,19.07-43.99,46.12-52.72,78.06-4.87,17.81-6.89,35.89-2.87,54.2,1.59,7.27,7.5,11.25,14.57,10.15,6.65-1.04,10.84-6.7,10.22-14-.25-2.94-.94-5.85-1.15-8.8-1.31-18.64,2.57-36.39,10.01-53.33,13.58-30.92,35.44-52.71,69.65-58.95,28.06-5.12,55.13-.3,80.62,12.3,32.82,16.23,55.21,42.67,68.83,75.91,30.95,75.52,25.67,149.39-14.32,220.29-23.78,42.15-55.93,78.07-89.16,112.92-9.8,10.28-20.97,19.03-33.88,25.3-29.14,14.15-64.03,4.89-82.11-21.99-10.73-15.96-14.65-33.92-14.81-52.92-.07-8.44-5.3-13.94-12.78-13.91-7.47.03-12.52,5.56-12.59,14.07-.17,20.45,4.22,39.87,13.83,57.96,20.73,39.01,66.22,58.1,106.96,44.83,20.22-6.58,36.57-19.28,51.61-33.8,24.25-23.4,45.13-49.77,65.81-76.24,37.84-48.43,62.54-102.23,65.65-164.63,2.52-50.6-6.09-98.8-31.54-143.07-23.67-41.17-58.06-68.87-104.91-79.79-7.96-1.86-16.1-2.95-24.15-4.4Zm-43.15,201.94c1.87-.18,2.36-.32,2.83-.25,1.95.28,3.91.57,5.85.94,15.61,3.03,30.79,7.18,43.64,17.2,10.45,8.16,15.75,18.94,15.24,32.17-1.33,33.97-22.05,59.71-55.26,66.9-16,3.47-29.05,10.9-40.49,22.07-4.24,4.14-8.65,8.12-13.2,11.91-3.22,2.68-6.85,1.14-7.34-3.04-.2-1.72.11-3.66.73-5.3,1.92-5.07,3.93-10.12,6.21-15.03,3.72-8.02,4.45-16.17,3.38-25-1.04-8.56-.56-17.34-.32-26.01.08-2.8,1.67-5.87,5.23-5.33,3.48.53,7.16,1.48,10.13,3.27,4.07,2.45,4.65,7.51,2.1,11.13-4.59,6.53-4.09,13.62,1.29,18.11,5.52,4.6,13.18,3.79,18.44-2.27,7.02-8.09,8.55-17.54,6.22-27.77-3.77-16.58-19.52-27.91-38.49-27.77-15.91.12-27.43,9.77-29.94,27.71-1.52,10.91.16,22.25.13,33.39,0,3.48-.41,7.14-1.52,10.42-2.35,6.99-5.97,13.61-7.85,20.71-4.98,18.87,6.84,37.21,25.19,39.83,8.23,1.18,15.32-2,21.48-6.93,6.67-5.34,12.89-11.25,19.2-17.04,6.58-6.04,14.03-9.97,22.87-11.92,7.66-1.69,15.29-4.07,22.5-7.16,42.85-18.32,57.5-64.58,54.06-94.4-2.93-25.44-18.55-41.79-40.7-52.63-19.05-9.33-39.48-13.29-60.47-15.03-2.09-.17-5.35-1.28-5.89-2.75-6.92-18.96-8.92-38.12-.42-57.2,15.23-34.23,44.05-44.83,77.9-28.95,24.09,11.3,39.11,30.62,48.54,54.74,12.25,31.35,15.43,63.98,10.94,97.11-5.68,41.9-19.62,80.14-52.7,109.02-2.18,1.9-3.85,5.02-4.54,7.86-1.28,5.29,1.48,10.46,5.97,12.97,5.04,2.82,10.43,2.02,15.49-2.22,20.26-17,34.22-38.32,44.34-62.63,22.86-54.9,25.43-110.58,6.12-166.76-12.17-35.42-34.9-61.97-70.53-76.05-17.12-6.77-34.76-9.41-52.65-3.87-32.34,10.02-49.53,34.05-57.39,65.38-5.79,23.07-1.02,45.45,8.15,66.95,8.29,19.46,20.21,36.53,34.98,51.62,4.76,4.86,10.96,5.9,16.15,2.88,4.8-2.79,7.47-8.56,5.69-14.01-.93-2.83-3.01-5.39-4.96-7.77-5.09-6.21-10.38-12.25-16.33-19.23Z"/>
  <path class="cls-1" d="m246.15,3c8.05,1.45,16.19,2.55,24.15,4.4,46.85,10.92,81.24,38.62,104.91,79.79,25.45,44.27,34.06,92.47,31.54,143.07-3.1,62.4-27.81,116.2-65.65,164.63-20.68,26.47-41.56,52.84-65.81,76.24-15.04,14.51-31.4,27.21-51.61,33.8-40.74,13.27-86.23-5.81-106.96-44.83-9.61-18.09-14-37.51-13.83-57.96.07-8.51,5.12-14.04,12.59-14.07,7.49-.03,12.71,5.47,12.78,13.91.15,19,4.07,36.96,14.81,52.92,18.08,26.88,52.97,36.14,82.11,21.99,12.91-6.27,24.08-15.02,33.88-25.3,33.23-34.85,65.38-70.76,89.16-112.92,39.99-70.9,45.27-144.77,14.32-220.29-13.62-33.24-36.01-59.68-68.83-75.91-25.49-12.61-52.55-17.42-80.62-12.3-34.2,6.24-56.06,28.03-69.65,58.95-7.44,16.94-11.33,34.69-10.01,53.33.21,2.94.9,5.85,1.15,8.8.63,7.3-3.56,12.96-10.22,14-7.08,1.1-12.98-2.88-14.57-10.15-4.02-18.31-2-36.39,2.87-54.2,8.73-31.94,24.91-58.99,52.72-78.06,15.5-10.62,32.76-16.62,51.36-18.92,1.26-.16,2.48-.62,3.72-.93,8.57,0,17.13,0,25.7,0Z"/>
  <path class="cls-1" d="m203,204.94c5.95,6.98,11.25,13.02,16.33,19.23,1.94,2.37,4.03,4.93,4.96,7.77,1.78,5.45-.88,11.21-5.69,14.01-5.19,3.02-11.39,1.98-16.15-2.88-14.78-15.09-26.69-32.16-34.98-51.62-9.16-21.5-13.94-43.88-8.15-66.95,7.86-31.33,25.05-55.37,57.39-65.38,17.89-5.54,35.53-2.89,52.65,3.87,35.63,14.08,58.35,40.63,70.53,76.05,19.31,56.18,16.74,111.85-6.12,166.76-10.12,24.31-24.07,45.63-44.34,62.63-5.06,4.24-10.45,5.04-15.49,2.22-4.49-2.52-7.25-7.68-5.97-12.97.69-2.85,2.36-5.96,4.54-7.86,33.08-28.88,47.03-67.12,52.7-109.02,4.49-33.13,1.3-65.76-10.94-97.11-9.42-24.12-24.45-43.44-48.54-54.74-33.85-15.88-62.67-5.28-77.9,28.95-8.49,19.08-6.5,38.24.42,57.2.54,1.47,3.8,2.58,5.89,2.75,20.99,1.74,41.42,5.7,60.47,15.03,22.15,10.84,37.77,27.19,40.7,52.63,3.44,29.82-11.21,76.08-54.06,94.4-7.21,3.08-14.84,5.47-22.5,7.16-8.84,1.95-16.29,5.88-22.87,11.92-6.3,5.79-12.52,11.7-19.2,17.04-6.16,4.93-13.24,8.11-21.48,6.93-18.35-2.63-30.18-20.96-25.19-39.83,1.87-7.1,5.49-13.71,7.85-20.71,1.1-3.28,1.51-6.93,1.52-10.42.03-11.14-1.65-22.48-.13-33.39,2.5-17.94,14.03-27.6,29.94-27.71,18.97-.14,34.72,11.19,38.49,27.77,2.33,10.22.8,19.68-6.22,27.77-5.26,6.06-12.92,6.87-18.44,2.27-5.38-4.49-5.89-11.58-1.29-18.11,2.55-3.62,1.96-8.68-2.1-11.13-2.97-1.79-6.65-2.73-10.13-3.27-3.55-.54-5.15,2.53-5.23,5.33-.24,8.67-.72,17.45.32,26.01,1.07,8.83.34,16.97-3.38,25-2.28,4.91-4.29,9.96-6.21,15.03-.62,1.64-.93,3.57-.73,5.3.49,4.18,4.12,5.72,7.34,3.04,4.55-3.79,8.96-7.77,13.2-11.91,11.44-11.18,24.48-18.61,40.49-22.07,33.2-7.2,53.93-32.93,55.26-66.9.52-13.23-4.78-24.01-15.24-32.17-12.84-10.03-28.03-14.18-43.64-17.2-1.94-.38-3.89-.67-5.85-.94-.47-.07-.97.08-2.83.25Z"/>
</svg>