<?xml version="1.0" encoding="UTF-8"?>
<svg id="Layer_2" data-name="Layer 2" xmlns="http://www.w3.org/2000/svg" viewBox="0 0 512 512">
  <defs>
    <style>
      .cls-1, .cls-2 {
        stroke-width: 0px;
      }

      .cls-2 {
        fill: #fff;
      }
    </style>
  </defs>
  <path class="cls-2" d="m3,116.45c0-37.81,0-75.63,0-113.45h506v506H3c0-38.01,0-76.16,0-114.3.25.6.58,1.18.74,1.8,5.99,24.05,22.07,36.68,46.78,36.68,137.08,0,274.16.02,411.24,0,27.19,0,46.31-19.05,46.33-46.18.04-87.62.04-175.24-.05-262.87,0-4.39-.48-8.9-1.59-13.14-5.34-20.43-22.71-33.01-45.2-33.01-107-.01-214,0-321.01,0-30.9,0-61.8-.09-92.7.04-19.5.08-36.33,12.34-42.29,30.44-.87,2.63-1.5,5.33-2.24,8.01Z"/>
  <path class="cls-1" d="m3,116.45c.74-2.67,1.38-5.38,2.24-8.01,5.96-18.1,22.8-30.35,42.29-30.44,30.9-.13,61.8-.04,92.7-.04,107,0,214,0,321.01,0,22.49,0,39.86,12.59,45.2,33.01,1.11,4.23,1.59,8.75,1.59,13.14.09,87.62.09,175.24.05,262.87-.01,27.13-19.14,46.17-46.33,46.18-137.08.03-274.16.01-411.24,0-24.71,0-40.79-12.63-46.78-36.68-.15-.62-.49-1.2-.74-1.8,0-92.75,0-185.5,0-278.25Zm453.34-7.4c-.24-.35-.48-.71-.72-1.06H53.86c2.17,1.8,3.39,2.66,4.43,3.7,61.06,61.23,122.11,122.48,183.16,183.71,9.51,9.53,18.69,9.55,28.17.05,43.88-44,87.72-88.05,131.65-131.99,18.24-18.25,36.7-36.28,55.06-54.41ZM54.37,403.14h402.36c-42.73-42.35-84.74-83.99-126.99-125.85-.95.91-2.26,2.11-3.51,3.36-12.31,12.34-24.56,24.74-36.92,37.03-19.38,19.27-48.15,19.25-67.51,0-7.46-7.42-14.84-14.92-22.28-22.37-6.13-6.14-12.28-12.27-18.09-18.07-42.3,41.91-84.32,83.54-127.07,125.9Zm-21.5-273.12v251.08c41.96-41.57,84.27-83.49,126.71-125.53-42.42-42.03-84.73-83.95-126.71-125.54Zm445.26,251.32v-250.67c-41.69,41.27-84.03,83.17-126.54,125.25,42.28,41.9,84.51,83.76,126.54,125.42Z"/>
  <path class="cls-2" d="m456.34,109.06c-18.36,18.13-36.82,36.16-55.06,54.41-43.94,43.95-87.77,87.99-131.65,131.99-9.48,9.51-18.67,9.49-28.17-.05-61.05-61.24-122.1-122.49-183.16-183.71-1.04-1.04-2.26-1.9-4.43-3.7h401.76c.24.35.48.71.72,1.06Z"/>
  <path class="cls-2" d="m54.37,403.14c42.75-42.36,84.77-83.99,127.07-125.9,5.81,5.8,11.96,11.93,18.09,18.07,7.43,7.45,14.81,14.95,22.28,22.37,19.36,19.25,48.13,19.26,67.51,0,12.36-12.29,24.61-24.69,36.92-37.03,1.25-1.25,2.56-2.45,3.51-3.36,42.24,41.86,84.26,83.5,126.99,125.85H54.37Z"/>
  <path class="cls-2" d="m32.88,130.01c41.98,41.59,84.28,83.51,126.71,125.54-42.44,42.04-84.75,83.96-126.71,125.53v-251.08Z"/>
  <path class="cls-2" d="m478.13,381.34c-42.03-41.66-84.26-83.52-126.54-125.42,42.51-42.08,84.85-83.98,126.54-125.25v250.67Z"/>
</svg>