<?xml version="1.0" encoding="UTF-8"?>
<svg id="Layer_2" data-name="Layer 2" xmlns="http://www.w3.org/2000/svg" viewBox="0 0 512 512">
  <defs>
    <style>
      .cls-1, .cls-2 {
        stroke-width: 0px;
      }

      .cls-2 {
        fill: #fff;
      }
    </style>
  </defs>
  <path class="cls-2" d="m508,213.26v294.74H4c0-168,0-336,0-504,168,0,336,0,504,0,0,61.24,0,122.48,0,183.72-.29-1.42-.72-2.83-.85-4.27-3.27-35.44-15.55-67.47-37.47-95.45C404.88,5.25,290.34-8.66,207.41,55.85c-62.41,48.55-86.55,135.19-58.23,209,30.72,80.03,110.33,128.3,195.45,118.52,77.26-8.88,141.41-66.14,158.49-141.68,2.12-9.36,3.27-18.94,4.87-28.42Zm-388.76,43.47c0-74.33,0-148.67,0-223,0-12.25-5.85-18.17-17.93-18.18-26.03-.03-52.07-.03-78.1,0-12.43.01-18.22,5.88-18.22,18.42,0,49.61,0,99.22,0,148.83,0,98.89,0,197.78,0,296.68,0,11.18,5.9,17.86,16.26,17.91,27.34.12,54.69.17,82.03-.12,3.48-.04,7.37-1.64,10.32-3.63,5.08-3.43,5.7-9.07,5.69-14.89-.07-74.01-.04-148.01-.04-222.02Z"/>
  <path class="cls-1" d="m508,213.26c-1.6,9.48-2.75,19.06-4.87,28.42-17.08,75.55-81.24,132.8-158.49,141.68-85.13,9.79-164.74-38.49-195.45-118.52-28.33-73.81-4.19-160.45,58.23-209C290.34-8.66,404.88,5.25,469.68,88c21.92,27.98,34.2,60.01,37.47,95.45.13,1.44.56,2.85.85,4.27v25.54Zm-184.96,140.04c84.94-.32,153.69-68.92,153.52-153.19-.17-84.76-69.43-153.59-154.06-153.12-85.25.48-153.78,69.05-153.56,153.66.22,84.27,69.57,152.96,154.1,152.65Z"/>
  <path class="cls-1" d="m119.24,256.73c0,74.01-.02,148.01.04,222.02,0,5.82-.61,11.45-5.69,14.89-2.95,1.99-6.83,3.59-10.32,3.63-27.34.29-54.68.24-82.03.12-10.36-.04-16.26-6.73-16.26-17.91,0-98.89,0-197.78,0-296.68,0-49.61,0-99.22,0-148.83,0-12.54,5.78-18.41,18.22-18.42,26.03-.03,52.07-.03,78.1,0,12.09.01,17.93,5.93,17.93,18.18.02,74.33,0,148.67,0,223Zm-31.77,209.04V47.29h-50.68v418.49h50.68Z"/>
  <path class="cls-2" d="m323.04,353.31c-84.54.32-153.88-68.37-154.1-152.65-.22-84.61,68.31-153.19,153.56-153.66,84.64-.47,153.9,68.36,154.06,153.12.17,84.27-68.58,152.87-153.52,153.19Z"/>
  <path class="cls-2" d="m87.47,465.77h-50.68V47.29h50.68v418.49Z"/>
</svg>