<?xml version="1.0" encoding="UTF-8"?>
<svg id="Layer_2" data-name="Layer 2" xmlns="http://www.w3.org/2000/svg" viewBox="0 0 512 512">
  <defs>
    <style>
      .cls-1, .cls-2 {
        stroke-width: 0px;
      }

      .cls-2 {
        fill: #fff;
      }
    </style>
  </defs>
  <path class="cls-2" d="m3,285.1V3c168.67,0,337.33,0,506,0v506H3c0-63.78,0-127.57,0-191.35.32.56.69,1.09.95,1.67,3.22,7.21,9.46,10.79,16.48,9.43,7.35-1.42,12.05-7.18,12.14-15.13.09-8.38.18-16.76-.04-25.13-.25-9.4-8.17-15.79-17.33-14.32-6.42,1.03-9.65,5.6-12.2,10.94Zm416.2-59.48c-.67-1.91-1.33-3.75-1.97-5.6-23.48-67.85-99.14-103.13-165.58-77.2-7.5,2.93-10.91,7.51-10.92,15.2-.03,67.69-.04,135.38,0,203.08,0,9.21,6.2,15.55,15.48,15.56,59.31.07,118.63.59,177.93-.25,29.65-.42,52.16-15.18,65.56-41.67,13.22-26.13,11.52-52.45-5.03-76.62-17.88-26.11-43.62-36.09-75.49-32.5Zm-237.84,31.03c0,28.6,0,57.19,0,85.79,0,6.74-.15,13.48.09,20.21.27,7.44,6.03,13.22,13.47,13.97,6.66.67,13.38-3.99,15.23-10.76.55-2.03.77-4.21.77-6.32.04-68.7.04-137.39,0-206.09,0-2.27-.25-4.64-.92-6.78-1.53-4.87-4.93-8.07-9.86-9.5-9.78-2.82-18.71,4.2-18.74,14.95-.08,34.84-.03,69.68-.03,104.52Zm-29.91,18.34c0-11.5,0-23,0-34.5,0-16.43.03-32.86-.01-49.29-.02-10.9-5.78-17.64-14.9-17.58-9.08.06-14.63,6.79-14.69,17.8,0,1.64,0,3.29,0,4.93,0,53.89,0,107.77,0,161.66,0,11.7,5.66,18.77,14.9,18.68,9.26-.09,14.67-7.04,14.69-18.89,0-1.31,0-2.63,0-3.94,0-26.29,0-52.57,0-78.86Zm-59.52,26.59c0-19.88.06-39.76-.03-59.64-.04-9.15-6.43-15.75-14.83-15.66-8.19.09-14.65,6.59-14.68,15.43-.11,39.76-.12,79.52.09,119.28.02,3.23,1.33,6.84,3.09,9.6,3.37,5.31,10.17,7.18,16.12,5.25,6.21-2.01,10.17-7.22,10.2-14.14.1-20.04.03-40.09.05-60.13Z"/>
  <path class="cls-1" d="m3,285.1c2.55-5.34,5.77-9.9,12.2-10.94,9.16-1.47,17.09,4.92,17.33,14.32.22,8.37.12,16.76.04,25.13-.08,7.95-4.79,13.71-12.14,15.13-7.03,1.36-13.26-2.21-16.48-9.43-.26-.58-.63-1.11-.95-1.67,0-10.85,0-21.7,0-32.55Z"/>
  <path class="cls-1" d="m419.2,225.62c31.87-3.59,57.6,6.39,75.49,32.5,16.55,24.17,18.25,50.48,5.03,76.62-13.4,26.49-35.91,41.26-65.56,41.67-59.3.83-118.62.31-177.93.25-9.28-.01-15.48-6.35-15.48-15.56-.04-67.69-.04-135.38,0-203.08,0-7.69,3.42-12.27,10.92-15.2,66.44-25.93,142.11,9.35,165.58,77.2.64,1.85,1.29,3.69,1.97,5.6Zm-148.63,121.5c1.53,0,2.81,0,4.08,0,52.1,0,104.19.03,156.29-.06,3.91,0,7.91-.45,11.71-1.36,26.29-6.31,41.49-32.86,33.73-58.61-7.63-25.31-34.96-38.79-60.37-29.78-12.6,4.47-20.29.12-22.95-12.99-9.18-45.4-44.55-76.73-90.73-80.2-10.84-.81-21.49.6-31.75,3.66v179.34Z"/>
  <path class="cls-1" d="m181.36,256.65c0-34.84-.05-69.68.03-104.52.02-10.76,8.96-17.78,18.74-14.95,4.93,1.42,8.32,4.63,9.86,9.5.68,2.15.92,4.52.92,6.78.05,68.7.04,137.39,0,206.09,0,2.11-.21,4.29-.77,6.32-1.85,6.77-8.57,11.43-15.23,10.76-7.43-.75-13.2-6.53-13.47-13.97-.24-6.73-.09-13.47-.09-20.21,0-28.6,0-57.19,0-85.79Z"/>
  <path class="cls-1" d="m151.45,274.98c0,26.29,0,52.57,0,78.86,0,1.31,0,2.63,0,3.94-.02,11.85-5.43,18.8-14.69,18.89-9.24.09-14.9-6.98-14.9-18.68,0-53.89,0-107.77,0-161.66,0-1.64,0-3.29,0-4.93.06-11.01,5.61-17.74,14.69-17.8,9.12-.06,14.88,6.68,14.9,17.58.04,16.43.01,32.86.01,49.29,0,11.5,0,23,0,34.5Z"/>
  <path class="cls-1" d="m91.93,301.58c0,20.04.06,40.09-.04,60.13-.03,6.92-3.99,12.13-10.2,14.14-5.95,1.92-12.75.06-16.12-5.25-1.76-2.77-3.07-6.37-3.09-9.6-.2-39.76-.19-79.52-.09-119.28.02-8.84,6.49-15.34,14.68-15.43,8.41-.09,14.79,6.51,14.83,15.66.08,19.88.03,39.76.02,59.64Z"/>
  <path class="cls-2" d="m270.57,347.11v-179.34c10.25-3.06,20.9-4.48,31.75-3.66,46.18,3.47,81.55,34.81,90.73,80.2,2.65,13.11,10.34,17.46,22.95,12.99,25.42-9.01,52.74,4.47,60.37,29.78,7.77,25.75-7.44,52.31-33.73,58.61-3.8.91-7.8,1.35-11.71,1.36-52.1.09-104.19.06-156.29.06-1.27,0-2.54,0-4.08,0Z"/>
</svg>