<?xml version="1.0" encoding="UTF-8"?>
<svg id="Layer_2" data-name="Layer 2" xmlns="http://www.w3.org/2000/svg" viewBox="0 0 512 512">
  <defs>
    <style>
      .cls-1, .cls-2 {
        stroke-width: 0px;
      }

      .cls-2 {
        fill: #fff;
      }
    </style>
  </defs>
  <path class="cls-1" d="m241.07,2c9.88,0,19.76,0,29.63,0,8.46,1.06,16.97,1.83,25.37,3.23,52.81,8.83,98.84,31.55,136.72,69.4,56.81,56.77,81.82,125.78,74.56,205.68-4.88,53.64-25.88,101.04-61.74,141.32-47.63,53.5-107.57,82.31-179.11,85.8-49.88,2.43-96.78-9.2-139.48-35.24C61.39,432.16,21.12,374.16,6.94,298.4c-1.78-9.48-2.65-19.13-3.94-28.7,0-9.88,0-19.76,0-29.63.4-3.55.81-7.11,1.21-10.66,6.06-54.41,26.84-102.42,63.52-143.12C106.67,43.07,154.92,16.1,212.32,5.93c9.51-1.68,19.16-2.64,28.74-3.93Zm14.73,40.56c-116.82.08-212.43,95.82-212.24,212.52.19,116.7,95.47,211.96,212.15,212.11,116.72.15,212.45-95.48,212.48-212.28.04-116.77-95.65-212.44-212.4-212.36Z"/>
  <path class="cls-2" d="m3,269.7c1.29,9.57,2.16,19.22,3.94,28.7,14.18,75.75,54.45,133.76,120.09,173.79,42.7,26.04,89.59,37.67,139.48,35.24,71.53-3.48,131.48-32.3,179.11-85.8,35.86-40.28,56.86-87.68,61.74-141.32,7.26-79.9-17.74-148.91-74.56-205.68-37.88-37.85-83.91-60.57-136.72-69.4-8.4-1.4-16.91-2.17-25.37-3.23,79.68,0,159.37,0,239.05,0v506.75c-168.92,0-337.84,0-506.75,0,0-79.68,0-159.37,0-239.05Z"/>
  <path class="cls-2" d="m241.07,2c-9.58,1.29-19.23,2.25-28.74,3.93-57.41,10.16-105.66,37.14-144.6,80.35C31.05,126.98,10.27,174.99,4.21,229.4c-.4,3.55-.8,7.11-1.21,10.66,0-79.36,0-158.71,0-238.07,79.36,0,158.71,0,238.07,0Z"/>
  <path class="cls-2" d="m255.8,42.56c116.75-.08,212.44,95.59,212.4,212.36-.04,116.8-95.77,212.43-212.48,212.28-116.69-.15-211.96-95.41-212.15-212.11-.19-116.7,95.42-212.45,212.24-212.52Zm-38.61,105.56c0,.4,0,.8,0,1.2-12.99,0-26.02-.6-38.97.15-16.07.94-32.12,2.63-48.08,4.74-9.01,1.19-14.95,8.64-15.93,17.71-.91,8.43,3.84,17.37,11.92,20.19,4.31,1.5,9.34,1.6,13.99,1.35,25.61-1.36,51.19-3.84,76.82-4.39,33.28-.72,66.38,2.38,99.06,9.12,20.51,4.23,40.2,10.94,59.56,18.9,10.6,4.36,21.83-.92,26.12-11.23,4.14-9.96-.17-21.67-10.66-25.9-14.45-5.83-29.04-11.54-44-15.82-42.38-12.14-85.92-15.75-129.82-16.02Zm.43,79.37c0,.46-.01.92-.02,1.38-12.49,0-25-.43-37.47.12-12.47.55-24.91,1.96-37.34,3.24-12.97,1.34-21.05,11.04-19.52,23.07,1.52,11.95,11.26,18.27,25.42,17.28,23.28-1.63,46.58-3.53,69.89-4.06,30.99-.71,61.89,1.72,92.02,9.24,16.82,4.19,33.09,10.58,49.62,15.97,10.64,3.47,21.4-1.43,25.57-11.61,4.01-9.79-.31-21.05-10.32-25.68-6.99-3.24-14.2-6.07-21.47-8.63-44.16-15.5-89.98-19.93-136.39-20.33Zm-4.88,75.9c-19.85,1.32-39.71,2.58-59.55,4.03-4.07.3-8.23.9-12.1,2.15-8.97,2.89-14.74,12.77-13.21,21.81,1.74,10.31,9.99,17.8,20.21,17.27,13.46-.7,26.86-2.45,40.32-3.21,29.31-1.64,58.53-.62,87.59,3.93,20.73,3.25,40.61,9.24,60.03,17.17,10.6,4.33,21.91-.95,26.08-11.17,4.09-10-.37-21.29-10.62-26.02-5.96-2.75-12.09-5.18-18.28-7.34-39-13.59-79.4-17.8-120.47-18.62Z"/>
  <path class="cls-1" d="m217.19,148.13c43.9.27,87.44,3.88,129.82,16.02,14.96,4.28,29.55,9.99,44,15.82,10.48,4.23,14.8,15.94,10.66,25.9-4.29,10.31-15.52,15.59-26.12,11.23-19.35-7.96-39.05-14.67-59.56-18.9-32.68-6.73-65.77-9.84-99.06-9.12-25.62.55-51.2,3.03-76.82,4.39-4.65.25-9.68.15-13.99-1.35-8.07-2.82-12.83-11.76-11.92-20.19.98-9.07,6.92-16.52,15.93-17.71,15.96-2.12,32.01-3.8,48.08-4.74,12.95-.76,25.98-.15,38.97-.15,0-.4,0-.8,0-1.2Z"/>
  <path class="cls-1" d="m217.61,227.5c46.41.4,92.23,4.82,136.39,20.33,7.27,2.55,14.48,5.39,21.47,8.63,10.01,4.63,14.33,15.89,10.32,25.68-4.17,10.18-14.92,15.07-25.57,11.61-16.52-5.38-32.8-11.77-49.62-15.97-30.14-7.52-61.04-9.95-92.02-9.24-23.32.53-46.61,2.43-69.89,4.06-14.17.99-23.9-5.33-25.42-17.28-1.53-12.03,6.55-21.74,19.52-23.07,12.43-1.28,24.87-2.69,37.34-3.24,12.47-.55,24.98-.12,37.47-.12,0-.46.01-.92.02-1.38Z"/>
  <path class="cls-1" d="m212.74,303.39c41.07.83,81.47,5.03,120.47,18.62,6.2,2.16,12.33,4.59,18.28,7.34,10.25,4.73,14.71,16.02,10.62,26.02-4.18,10.22-15.48,15.49-26.08,11.17-19.42-7.92-39.3-13.92-60.03-17.17-29.06-4.55-58.28-5.57-87.59-3.93-13.46.75-26.86,2.5-40.32,3.21-10.22.53-18.47-6.96-20.21-17.27-1.52-9.04,4.25-18.92,13.21-21.81,3.87-1.24,8.03-1.85,12.1-2.15,19.84-1.46,39.7-2.71,59.55-4.03Z"/>
</svg>