<?xml version="1.0" encoding="UTF-8"?>
<svg id="Layer_2" data-name="Layer 2" xmlns="http://www.w3.org/2000/svg" viewBox="0 0 512 512">
  <defs>
    <style>
      .cls-1, .cls-2 {
        stroke-width: 0px;
      }

      .cls-2 {
        fill: #fff;
      }
    </style>
  </defs>
  <path class="cls-2" d="m334.42,6c57.19,0,114.37,0,171.58,0v500H6V6h169.5c-1.66.94-3.28,1.98-5,2.81-23.12,11.05-46.41,21.77-69.36,33.17-28.45,14.15-47.01,36.82-55.29,67.53-8.7,32.25-17.03,64.6-25.51,96.91-2.25,8.56-.94,11.73,6.58,16.06,25.02,14.43,50.01,28.91,75.13,43.17,3.31,1.88,4.31,3.92,4.31,7.62-.12,57.01-.1,114.03-.08,171.04.01,20.65,11.28,36.56,31.04,42.09,17.77,4.98,35.71,9.73,53.86,12.95,61.41,10.91,121.92,6.14,181.36-12.53,21.49-6.75,32.08-21.35,32.08-43.82,0-56.2.05-112.4-.1-168.6-.01-4.38,1.15-6.85,5.12-9.09,25.01-14.12,49.85-28.55,74.72-42.91,7.02-4.05,8.42-7.47,6.36-15.32-8.34-31.84-16.68-63.69-25.05-95.52-8.71-33.15-28.69-56.87-59.67-71.48-23.9-11.27-47.73-22.71-71.59-34.08Z"/>
  <path class="cls-1" d="m334.42,6c23.86,11.36,47.69,22.8,71.59,34.08,30.98,14.61,50.95,38.34,59.67,71.48,8.37,31.84,16.71,63.68,25.05,95.52,2.06,7.85.66,11.26-6.36,15.32-24.88,14.36-49.71,28.79-74.72,42.91-3.97,2.24-5.13,4.71-5.12,9.09.15,56.2.1,112.4.1,168.6,0,22.46-10.59,37.06-32.08,43.82-59.44,18.67-119.94,23.44-181.36,12.53-18.15-3.22-36.09-7.97-53.86-12.95-19.76-5.53-31.03-21.44-31.04-42.09-.03-57.01-.05-114.03.08-171.04,0-3.7-1-5.74-4.31-7.62-25.12-14.26-50.11-28.75-75.13-43.17-7.52-4.33-8.82-7.5-6.58-16.06,8.48-32.31,16.81-64.66,25.51-96.91,8.29-30.71,26.84-53.38,55.29-67.53,22.94-11.41,46.23-22.12,69.36-33.17,1.72-.82,3.33-1.87,5-2.81,2.28,0,4.55,0,6.83,0,.68.37,1.33.84,2.05,1.1,33.05,12.1,67.07,16.13,101.78,10.25,14.37-2.43,28.29-7.49,42.42-11.35,1.95,0,3.9,0,5.85,0ZM106.15,244.04c0-2.2,0-3.76,0-5.32,0-12.18,0-24.37,0-36.55,0-9.46,3.3-14.1,10.12-14.23,7.06-.14,10.59,4.6,10.59,14.26,0,80.26,0,160.51,0,240.77,0,13.39,5.23,20.26,18.05,24.24,23.31,7.23,47.06,12.25,71.36,14.81,50.26,5.3,99.52.56,147.81-14.27,15.26-4.69,19.72-10.86,19.72-26.97,0-79.12,0-158.24,0-237.36,0-2.11-.06-4.24.15-6.33.55-5.39,4.81-9.26,10.09-9.33,5.21-.07,9.71,3.77,10.4,9.08.27,2.08.14,4.22.14,6.33,0,13.42,0,26.83,0,40.96,1.86-1,3.12-1.65,4.35-2.35,18.87-10.82,37.69-21.72,56.63-32.4,2.96-1.67,3.59-3.14,2.7-6.48-7.75-28.98-15.14-58.07-22.89-87.05-6.75-25.25-21.8-43.96-45.37-55.46-19.1-9.32-38.35-18.31-57.55-27.44-.67-.32-1.44-.45-2.08-.65-11.39,41.2-37.03,67.46-80.09,69.5-47.98,2.28-76.8-24.46-90.13-69.7-19.65,9.34-39.34,18.52-58.86,28.03-23.87,11.63-39.21,30.44-46.01,56.11-7.64,28.85-15.09,57.74-22.8,86.57-.87,3.25-.37,4.84,2.63,6.54,19.07,10.78,38.02,21.78,57.02,32.7,1.07.62,2.22,1.11,3.98,2ZM318.12,31.94c-20.6,5.39-41.28,9-62.43,9.02-21.32.03-42.18-3.39-62.92-9.02,3.19,26.26,33.09,49.71,62.65,49.73,29.49.02,59.46-23.47,62.69-49.73Z"/>
  <path class="cls-2" d="m328.57,6c-14.13,3.86-28.05,8.92-42.42,11.35-34.71,5.88-68.73,1.85-101.78-10.25-.72-.26-1.37-.73-2.05-1.1,48.75,0,97.5,0,146.25,0Z"/>
  <path class="cls-2" d="m106.15,244.04c-1.77-.88-2.91-1.38-3.98-2-19-10.92-37.95-21.92-57.02-32.7-3-1.7-3.5-3.29-2.63-6.54,7.71-28.83,15.16-57.73,22.8-86.57,6.8-25.66,22.14-44.48,46.01-56.11,19.52-9.51,39.21-18.69,58.86-28.03,13.33,45.24,42.15,71.98,90.13,69.7,43.06-2.05,68.7-28.3,80.09-69.5.64.2,1.41.33,2.08.65,19.19,9.12,38.45,18.12,57.55,27.44,23.57,11.5,38.62,30.21,45.37,55.46,7.75,28.99,15.14,58.07,22.89,87.05.89,3.34.26,4.81-2.7,6.48-18.94,10.68-37.77,21.58-56.63,32.4-1.23.7-2.49,1.35-4.35,2.35,0-14.12,0-27.54,0-40.96,0-2.11.13-4.25-.14-6.33-.69-5.32-5.19-9.15-10.4-9.08-5.28.07-9.54,3.94-10.09,9.33-.21,2.09-.15,4.22-.15,6.33,0,79.12,0,158.24,0,237.36,0,16.11-4.46,22.28-19.72,26.97-48.29,14.84-97.55,19.58-147.81,14.27-24.3-2.56-48.05-7.58-71.36-14.81-12.82-3.98-18.05-10.85-18.05-24.24-.01-80.26,0-160.51,0-240.77,0-9.65-3.53-14.39-10.59-14.26-6.82.13-10.12,4.77-10.12,14.23,0,12.18,0,24.37,0,36.55,0,1.56,0,3.11,0,5.32Z"/>
  <path class="cls-2" d="m318.12,31.94c-3.23,26.26-33.2,49.75-62.69,49.73-29.56-.02-59.46-23.47-62.65-49.73,20.73,5.62,41.6,9.05,62.92,9.02,21.15-.03,41.83-3.64,62.43-9.02Z"/>
</svg>