<?xml version="1.0" encoding="UTF-8"?>
<svg id="Layer_1" data-name="Layer 1" xmlns="http://www.w3.org/2000/svg" viewBox="0 0 512 512">
  <defs>
    <style>
      .cls-1, .cls-2 {
        stroke-width: 0px;
      }

      .cls-2 {
        fill: #fff;
      }
    </style>
  </defs>
  <path class="cls-2" d="m486.84,2c7.59,0,15.17,0,22.76,0v507.6H2c0-169.2,0-338.4,0-507.6,1.98,0,3.96,0,5.94,0,1.18,1.95,2.27,3.97,3.56,5.85,62.22,90.6,124.46,181.18,186.7,271.78.9,1.32,1.74,2.68,2.69,4.15C136.52,358.59,72.33,433.21,7.47,508.61c14.13,0,26.98.15,39.81-.14,2.23-.05,5.07-1.39,6.53-3.09,43.22-50.02,86.31-100.16,129.42-150.27,12.24-14.23,24.5-28.45,37.1-43.09,1.38,1.94,2.53,3.51,3.63,5.11,43.03,62.6,86.07,125.19,129.03,187.85,1.76,2.56,3.45,3.73,6.71,3.72,46.33-.13,92.66-.08,138.99-.1,1.21,0,2.42-.2,4.21-.36-67.05-97.59-133.73-194.63-200.39-291.65,1.28-1.54,2.2-2.69,3.17-3.81,33.33-38.74,66.67-77.47,99.98-116.23,27.08-31.5,54.12-63.03,81.17-94.55Z"/>
  <path class="cls-1" d="m486.84,2c-27.06,31.52-54.1,63.05-81.17,94.55-33.31,38.76-66.66,77.48-99.98,116.23-.96,1.12-1.89,2.27-3.17,3.81,66.66,97.02,133.34,194.06,200.39,291.65-1.8.16-3.01.36-4.21.36-46.33.02-92.66-.03-138.99.1-3.26,0-4.96-1.16-6.71-3.72-42.95-62.65-86-125.25-129.03-187.85-1.1-1.6-2.25-3.17-3.63-5.11-12.6,14.63-24.86,28.85-37.1,43.09-43.11,50.12-86.19,100.25-129.42,150.27-1.46,1.69-4.3,3.04-6.53,3.09-12.83.29-25.68.14-39.81.14,64.86-75.4,129.05-150.02,193.41-224.83-.95-1.47-1.78-2.83-2.69-4.15C135.96,189.04,73.72,98.45,11.5,7.85c-1.29-1.88-2.38-3.9-3.56-5.85,49.14,0,98.29,0,147.43,0,.39.72.71,1.48,1.17,2.15,41.51,60.43,83.03,120.86,124.54,181.29.62.9,1.08,1.9,1.73,3.07,54.06-62.83,107.27-124.67,160.49-186.51,14.51,0,29.02,0,43.54,0Zm-43.91,475.12c-1.31-2.09-2.01-3.34-2.82-4.51C338.92,327.86,237.72,183.11,136.58,38.32c-1.81-2.59-3.69-3.59-6.87-3.56-19.29.15-38.57.07-57.86.09-1.35,0-2.7.2-4.63.35,1.55,2.26,2.65,3.89,3.78,5.5,71.56,102.35,143.12,204.7,214.67,307.06,29.26,41.86,58.49,83.74,87.84,125.54,1.16,1.66,3.38,3.64,5.12,3.66,21.09.25,42.18.16,64.3.16Z"/>
  <path class="cls-2" d="m443.31,2c-53.21,61.84-106.43,123.69-160.49,186.51-.65-1.17-1.12-2.17-1.73-3.07-41.51-60.43-83.03-120.86-124.54-181.29-.46-.67-.79-1.43-1.17-2.15,95.98,0,191.96,0,287.94,0Z"/>
  <path class="cls-2" d="m442.94,477.12c-22.12,0-43.22.09-64.3-.16-1.75-.02-3.96-2-5.12-3.66-29.35-41.8-58.58-83.68-87.84-125.54C214.11,245.4,142.55,143.05,71,40.7c-1.13-1.61-2.23-3.24-3.78-5.5,1.93-.15,3.28-.35,4.63-.35,19.29-.02,38.58.06,57.86-.09,3.18-.03,5.06.98,6.87,3.56,101.14,144.79,202.34,289.54,303.53,434.3.82,1.17,1.52,2.41,2.82,4.51Z"/>
</svg>