<?xml version="1.0" encoding="UTF-8"?>
<svg id="Layer_2" data-name="Layer 2" xmlns="http://www.w3.org/2000/svg" viewBox="0 0 512 512">
  <defs>
    <style>
      .cls-1, .cls-2 {
        stroke-width: 0px;
      }

      .cls-2 {
        fill: #fff;
      }
    </style>
  </defs>
  <path class="cls-1" d="m271.08,509h-29.62c-9.75-1.31-19.57-2.24-29.23-4-61.69-11.23-112.66-41.16-152.05-89.79C18.2,363.39-.22,303.71,4.43,237.07c2.54-36.48,12.06-71.18,30.68-102.55C89.16,43.43,169.33-1.02,275.48,4.6c55.33,2.93,103.77,24.66,145.69,60.74,8.4,7.23,16.12,15.27,24.65,23.4v-5.19c0-21.89,0-43.77,0-65.66,0-9.29,3.75-14.38,10.54-14.36,6.77.02,10.44,5.05,10.44,14.4,0,30.77.07,61.54-.07,92.32-.02,4.47,1.01,8.2,3.4,11.98,16.97,26.81,28.62,55.78,34.19,87.05,1.95,10.97,3.14,22.07,4.68,33.12v28.63c-.4,3.55-.81,7.1-1.21,10.66-6.05,54.39-26.82,102.37-63.48,143.06-38.92,43.19-87.14,70.16-144.51,80.31-9.51,1.68-19.15,2.64-28.72,3.93Zm122.52-171.72c1.35-2.04,2.06-3.62,3.21-4.77,15.2-15.28,30.41-30.56,45.76-45.69,2.43-2.4,3.33-4.8,3.32-8.18-.11-45.09-.07-90.18-.07-135.27,0-21.34.47-21.77-14-37.65C366.76,34.31,286.69,8.52,193.43,33.67,71.69,66.51.2,193.14,32.08,314.55c25.6,97.5,110.56,167.34,211.25,172.83,64.57,3.52,122.06-16,168.85-60.48,70.76-67.26,91.48-149.09,63.96-242.89-2.14-7.28-5.35-14.24-8.06-21.36-.43.09-.85.17-1.28.26,0,1.72,0,3.44,0,5.16,0,38.67-.07,77.34.08,116.02.02,5.69-1.76,9.99-5.81,13.98-16.54,16.27-32.87,32.76-49.26,49.17-1.22,1.23-2.39,2.51-3.51,3.69.55.73.71,1.02.94,1.26,3.48,3.5,6.98,6.98,10.45,10.5,6.57,6.66,6.66,12.12.12,18.68-19.75,19.81-39.53,39.59-59.33,59.35-6.8,6.78-12.18,6.77-19.01-.17-3.76-3.81-7.22-7.92-11.14-12.25-5.04,5.2-8.69,9.78-13.16,13.31-2.7,2.13-6.83,4-10.05,3.63-8.63-.98-11.37-10.91-5.19-17.77,4.13-4.58,8.64-8.82,13.28-13.51-4.48-4.34-8.59-8.14-12.48-12.15-5.7-5.86-5.81-11.47-.05-17.27,20.17-20.32,40.42-40.57,60.73-60.74,5.98-5.94,11.52-5.79,17.6.23,3.96,3.92,7.7,8.08,12.61,13.25Zm-42.83,81.66c15.65-15.65,31.59-31.58,46.97-46.97-8.46-8.45-17.34-17.32-25.88-25.85-15.48,15.54-31.32,31.44-46.82,46.99,8.57,8.6,17.45,17.51,25.73,25.82Z"/>
  <path class="cls-2" d="m509,242.41c-1.54-11.04-2.72-22.15-4.68-33.12-5.57-31.28-17.21-60.25-34.19-87.05-2.4-3.78-3.43-7.52-3.4-11.98.15-30.77.08-61.54.07-92.32,0-9.35-3.67-14.38-10.44-14.4-6.8-.02-10.54,5.07-10.54,14.36,0,21.89,0,43.77,0,65.66v5.19c-8.53-8.14-16.25-16.17-24.65-23.4C379.24,29.26,330.81,7.52,275.48,4.6,169.33-1.02,89.16,43.43,35.1,134.51c-18.62,31.38-28.14,66.08-30.68,102.55-4.64,66.65,13.77,126.32,55.76,178.15,39.39,48.62,90.36,78.55,152.05,89.79,9.67,1.76,19.48,2.69,29.23,4H2.6V2.6h506.4v239.81Z"/>
  <path class="cls-2" d="m271.08,509c9.58-1.29,19.21-2.25,28.72-3.93,57.37-10.16,105.59-37.12,144.51-80.31,36.66-40.68,57.43-88.66,63.48-143.06.4-3.55.81-7.1,1.21-10.66v237.96h-237.92Z"/>
  <path class="cls-2" d="m393.61,337.28c-4.9-5.17-8.64-9.33-12.61-13.25-6.08-6.02-11.62-6.17-17.6-.23-20.31,20.18-40.56,40.42-60.73,60.74-5.76,5.8-5.65,11.41.05,17.27,3.89,4.01,8,7.8,12.48,12.15-4.64,4.69-9.15,8.93-13.28,13.51-6.18,6.86-3.43,16.78,5.19,17.77,3.22.37,7.35-1.5,10.05-3.63,4.47-3.53,8.13-8.11,13.16-13.31,3.92,4.34,7.39,8.44,11.14,12.25,6.83,6.94,12.21,6.95,19.01.17,19.8-19.76,39.59-39.53,59.33-59.35,6.53-6.55,6.45-12.01-.12-18.68-3.46-3.52-6.97-6.99-10.45-10.5-.23-.23-.4-.52-.94-1.26,1.12-1.18,2.29-2.47,3.51-3.69,16.4-16.41,32.73-32.9,49.26-49.17,4.05-3.98,5.83-8.28,5.81-13.98-.15-38.67-.08-77.34-.08-116.02,0-1.72,0-3.44,0-5.16.43-.09.85-.17,1.28-.26,2.71,7.11,5.92,14.08,8.06,21.36,27.52,93.79,6.79,175.63-63.96,242.89-46.79,44.47-104.28,64-168.85,60.48-100.69-5.49-185.65-75.33-211.25-172.83C.2,193.14,71.69,66.51,193.43,33.67c93.27-25.16,173.34.64,238.39,72.05,14.47,15.88,14,16.3,14,37.65,0,45.09-.04,90.18.07,135.27,0,3.39-.89,5.79-3.32,8.18-15.35,15.13-30.56,30.41-45.76,45.69-1.15,1.15-1.86,2.74-3.21,4.77Zm-137.38,24.29c57.7.11,105.01-47.11,105.38-105.17.36-57.53-46.79-104.9-105.03-105.52-57.48-.61-105.78,47.6-105.62,105.42.16,57.9,47.42,105.16,105.28,105.27Zm10.48-284.6c-.12-5.96-4.86-10.45-11.58-10.21-8.04.3-16.09.83-24.07,1.85-41.89,5.33-77.56,23.54-107.83,52.71-5,4.82-5.53,10.78-1.54,15.39,3.86,4.47,10.15,4.69,15.4.35,3.41-2.83,6.53-6.02,9.92-8.89,23.57-20.03,50.49-33,81.1-37.8,9.55-1.5,19.28-1.84,28.91-2.89,5.9-.64,9.81-5.05,9.69-10.5Z"/>
  <path class="cls-2" d="m350.78,418.95c-8.29-8.32-17.16-17.22-25.73-25.82,15.5-15.56,31.34-31.46,46.82-46.99,8.54,8.53,17.42,17.4,25.88,25.85-15.38,15.38-31.32,31.31-46.97,46.97Z"/>
  <path class="cls-1" d="m256.22,361.58c-57.85-.11-105.12-47.37-105.28-105.27-.16-57.82,48.14-106.03,105.62-105.42,58.24.62,105.39,47.99,105.03,105.52-.36,58.06-47.67,105.28-105.38,105.17Zm.02-189.49c-46.48.03-84.01,37.55-84.1,84.05-.09,46.43,37.38,84.04,83.91,84.24,46.56.2,84.49-37.71,84.35-84.3-.14-46.52-37.71-84.02-84.16-83.99Z"/>
  <path class="cls-1" d="m266.7,76.97c.11,5.45-3.79,9.86-9.69,10.5-9.63,1.04-19.36,1.39-28.91,2.89-30.61,4.8-57.54,17.77-81.1,37.8-3.38,2.87-6.5,6.06-9.92,8.89-5.24,4.35-11.53,4.12-15.4-.35-3.99-4.61-3.46-10.57,1.54-15.39,30.27-29.17,65.94-47.38,107.83-52.71,7.97-1.01,16.03-1.55,24.07-1.85,6.72-.25,11.45,4.24,11.58,10.21Z"/>
  <path class="cls-2" d="m256.24,172.09c46.45-.03,84.02,37.47,84.16,83.99.14,46.59-37.79,84.5-84.35,84.3-46.53-.2-84-37.81-83.91-84.24.09-46.5,37.62-84.02,84.1-84.05Zm20.95,84.36c.1-11.73-9.02-21.04-20.7-21.14-11.73-.09-21.04,9.03-21.13,20.7-.1,11.73,9.02,21.04,20.7,21.14,11.73.1,21.04-9.03,21.13-20.7Z"/>
  <path class="cls-1" d="m277.19,256.45c-.09,11.68-9.41,20.8-21.13,20.7-11.67-.09-20.79-9.41-20.7-21.14.09-11.68,9.41-20.8,21.13-20.7,11.67.09,20.79,9.41,20.7,21.14Z"/>
</svg>