<svg xmlns="http://www.w3.org/2000/svg" data-name="Layer 2" viewBox="0 0 512 512"><path d="M510 302.83V510H1.6V1.6H510v209.03c-.33-4.09-.64-8.19-.99-12.28-1.67-19.06-2.71-38.2-5.24-57.14-1.9-14.27-6.61-28.03-15.34-39.8-14.82-19.99-35.45-29.99-59.79-31.43-37.74-2.24-75.53-4.45-113.32-4.86-53.32-.57-106.67.08-159.99 1.1-26.55.51-53.12 2.31-79.55 4.88-20.22 1.97-36.88 12.14-49.44 28.15-12.76 16.26-17.85 35.72-19.84 55.7-4.96 49.72-4.86 99.63-3.27 149.51.8 25.2.89 50.55 7.18 75.28 5.09 19.99 14.35 37.15 32.13 48.78 14.57 9.53 31.05 13.25 47.93 13.95 56.42 2.35 112.86 5.1 169.3 5.57 45.71.39 91.45-2.12 137.16-3.67 14.01-.48 28.16-.99 41.92-3.35 34.83-5.98 54.56-28.15 63.21-61.58 3.92-15.15 5.05-30.57 6.01-46.05.63-10.19 1.3-20.37 1.95-30.56Z" class="cls-2"/><path d="M510 302.83c-.65 10.19-1.33 20.37-1.95 30.56-.95 15.49-2.09 30.91-6.01 46.05-8.65 33.42-28.37 55.59-63.21 61.58-13.76 2.36-27.92 2.87-41.92 3.35-45.71 1.56-91.45 4.06-137.16 3.67-56.45-.48-112.89-3.22-169.3-5.57-16.88-.7-33.35-4.42-47.93-13.95-17.78-11.63-27.04-28.79-32.13-48.78-6.3-24.73-6.38-50.07-7.18-75.28-1.59-49.88-1.69-99.79 3.27-149.51 1.99-19.98 7.08-39.44 19.84-55.7C38.89 83.24 55.55 73.06 75.76 71.1c26.43-2.57 53.01-4.37 79.55-4.88 53.32-1.03 106.67-1.67 159.99-1.1 37.79.4 75.58 2.62 113.32 4.86 24.34 1.44 44.97 11.44 59.79 31.43 8.73 11.77 13.44 25.53 15.34 39.8 2.52 18.94 3.57 38.09 5.24 57.14.36 4.09.66 8.19.99 12.28v92.2ZM267.32 93.12c-46.69 1.13-82.36 1.75-118.02 2.94-21.61.72-43.25 1.76-64.78 3.72-20.54 1.87-35.38 12.05-42.5 32.44-5.19 14.88-6.81 30.2-7.69 45.71-2.99 52.33-3.22 104.69.14 157 .88 13.59 3.11 27.18 5.84 40.55 1.73 8.49 5.33 16.56 11.96 22.92 8.95 8.59 19.95 12.21 31.79 13.35 17.41 1.66 34.87 3.14 52.34 3.84 79.74 3.18 159.49 3.94 239.23.16 19.12-.91 38.29-1.8 57.29-3.98 17.5-2.01 29.94-11.59 36.53-28.59 6.26-16.15 7.83-32.96 8.81-49.97 2.63-45.23 2.84-90.48.84-135.72-.9-20.24-.76-40.68-6.7-60.38-3.08-10.22-7.08-19.75-16.03-26.63-10.91-8.39-23.56-11.02-36.69-11.56-54.45-2.24-108.91-4.16-152.38-5.79Z" class="cls-1"/><path d="M267.32 93.11c43.47 1.63 97.93 3.56 152.38 5.79 13.13.54 25.78 3.18 36.69 11.56 8.94 6.87 12.95 16.41 16.03 26.63 5.94 19.71 5.8 40.15 6.7 60.38 2 45.24 1.78 90.5-.84 135.72-.99 17.01-2.55 33.82-8.81 49.97-6.59 17-19.03 26.58-36.53 28.59-19 2.18-38.17 3.07-57.29 3.98-79.74 3.78-159.5 3.02-239.23-.16-17.47-.7-34.93-2.17-52.34-3.84-11.83-1.13-22.84-4.76-31.79-13.35-6.63-6.37-10.23-14.43-11.96-22.92-2.73-13.36-4.96-26.95-5.84-40.55-3.37-52.31-3.13-104.66-.14-157 .89-15.51 2.5-30.83 7.69-45.71 7.12-20.4 21.95-30.58 42.5-32.44 21.53-1.96 43.16-3 64.78-3.72 35.65-1.19 71.32-1.81 118.02-2.94Zm-75.53 157.91c0 19.33-.03 38.66 0 57.99.04 19.27 15.56 28.76 32.44 19.73 35.93-19.22 71.79-38.57 107.71-57.81 7.88-4.22 13-10.31 12.98-19.49-.03-8.94-4.94-14.97-12.66-19.17-36.07-19.66-72.04-39.51-108.12-59.14-16.54-9-32.29.54-32.34 19.41-.06 19.49-.01 38.99-.01 58.48Z" class="cls-2"/><path d="M191.79 251.02c0-19.49-.04-38.99.01-58.48.05-18.87 15.8-28.41 32.34-19.41 36.09 19.63 72.06 39.47 108.12 59.14 7.72 4.21 12.63 10.24 12.66 19.17.03 9.18-5.1 15.27-12.98 19.49-35.92 19.23-71.78 38.59-107.71 57.81-16.88 9.03-32.4-.46-32.44-19.73-.04-19.33 0-38.66 0-57.99Zm113.52.41c-28.18-15.43-55.68-30.48-83.53-45.72v90.63c27.9-15 55.28-29.72 83.53-44.91Z" class="cls-1"/><path d="M305.3 251.43c-28.25 15.19-55.64 29.91-83.53 44.91v-90.63c27.85 15.25 55.35 30.3 83.53 45.72Z" class="cls-2"/></svg>
